<svg width="120" height="120" viewBox="0 0 120 120" fill="none" xmlns="http://www.w3.org/2000/svg">
<path d="M71.4967 6.33165C78.4778 4.50794 82.2477 10.8006 82.2477 10.8006C84.0521 13.2162 85.708 16.3076 87.3755 19.7015C90.9649 26.9858 92.3243 33.8645 92.8025 39.1523C92.9313 40.0474 93 40.9562 93 41.877C93 55.7518 78.0016 67 59.5 67C40.9985 67 26 55.7518 26 41.877C26 41.0387 26.0554 40.2101 26.1624 39.3929C26.6231 34.074 27.9789 27.0969 31.6124 19.7015C33.2798 16.3079 34.9347 13.2161 36.7389 10.8006C36.7389 10.8006 40.51 4.50785 47.4912 6.33165C51.8627 7.47367 55.4679 11.2724 57.5524 13.953C58.4907 15.1596 60.5058 15.1584 61.4434 13.9512C63.5251 11.2709 67.1259 7.47347 71.4967 6.33165Z" fill="#FFB36E"/>
<path d="M33.2863 90.0463C28.7344 77.7808 33.0755 63.7069 35.8151 58.2031H60.4709L61.1031 96.5329H58.5743L57.3099 105.968C57.3099 110.214 54.3596 112.061 52.8845 112.455C45.298 114.342 39.6082 114.027 37.7116 113.634C29.1137 111.747 31.1789 106.951 33.2863 104.789V90.0463Z" fill="#FFB36E"/>
<path d="M86.9076 90.0463C91.4594 77.7808 87.1183 63.7069 84.3788 58.2031H59.723L59.0908 96.5329H61.6196L62.884 105.968C62.884 110.214 65.8342 112.061 67.3094 112.455C74.8958 114.342 80.5856 114.027 82.4822 113.634C91.0802 111.747 89.0149 106.951 86.9076 104.789V90.0463Z" fill="#FFB36E"/>
<path d="M80.9999 72.6303C80.9999 65.767 75.6858 60.2037 69.1298 60.2031C65.9789 60.2035 63.1157 61.4897 60.9912 63.5861C60.1798 64.3861 58.906 64.3861 58.0945 63.5861C55.9698 61.4883 53.1051 60.2032 49.9549 60.2031C43.3984 60.2031 38.0839 65.7667 38.0839 72.6303C37.7226 80.4879 41.5999 96.3031 59.9999 96.7031C66.8332 96.8212 80.5999 92.172 80.9999 72.6303Z" fill="#FFE9D5"/>
<path d="M54 95.7031C55.8333 96.4577 60.8 97.5142 66 95.7031" stroke="#FF8E00" stroke-linecap="round"/>
<path d="M34.5439 57.9773C29.2311 53.6041 26 47.8263 26 41.492C26 40.6674 26.0554 39.8524 26.1624 39.0486C26.6231 33.8169 27.9789 26.9542 31.6124 19.68C33.2798 16.342 34.9347 13.3009 36.739 10.925C36.739 10.925 40.51 4.73544 47.4912 6.52934C51.8708 7.65472 55.4813 11.403 57.564 14.0404C58.5034 15.2299 60.4932 15.2287 61.4318 14.0386C63.5118 11.4015 67.1178 7.65453 71.4967 6.52934C78.4778 4.73553 82.2477 10.925 82.2477 10.925C84.0521 13.301 85.708 16.3418 87.3755 19.68C90.9649 26.8449 92.3243 33.6108 92.8025 38.8119C92.9313 39.6924 93 40.5863 93 41.492C93 44.4524 92.2942 47.2913 91 49.9221" stroke="#FF8E00" stroke-linecap="round"/>
<circle cx="55.2709" cy="31.8847" r="2.68156" fill="#1F1F1F"/>
<circle cx="63.986" cy="31.8847" r="2.68156" fill="#1F1F1F"/>
<ellipse cx="75.0474" cy="36.9127" rx="8.37989" ry="5.02793" fill="#FF8E00"/>
<ellipse cx="44.8799" cy="36.9127" rx="8.37989" ry="5.02793" fill="#FF8E00"/>
<path d="M59.5 36.75C61.1474 36.75 62.75 38.488 62.75 41C62.75 43.512 61.1474 45.25 59.5 45.25C57.8526 45.25 56.25 43.512 56.25 41C56.25 38.488 57.8526 36.75 59.5 36.75Z" fill="white" stroke="#1F1F1F" stroke-width="1.5"/>
<circle cx="55.5" cy="32.5" r="0.5" fill="white"/>
<circle cx="64.5" cy="32.5" r="0.5" fill="white"/>
<circle cx="54" cy="31" r="1" fill="white"/>
<circle cx="63" cy="31" r="1" fill="white"/>
<path d="M33.1423 64.2031C31.0664 71.1095 29.6613 81.0838 32.9966 90.0915V104.973C30.8741 107.156 28.7938 111.997 37.4536 113.902C39.3639 114.299 45.0946 114.616 52.7355 112.711C54.2212 112.314 57.1923 110.45 57.1924 106.164L58.4658 96.6389H61.5332L62.8066 106.164C62.8068 110.45 65.7788 112.315 67.2645 112.711C74.9054 114.616 80.6362 114.299 82.5464 113.902C91.2057 111.997 89.1258 107.156 87.0034 104.973V90.0915C90.3387 81.0838 88.9336 71.1095 86.8577 64.2031" stroke="#FF8E00" stroke-linecap="round"/>
<path d="M69.1534 42.6437C74.7864 38.7722 79.5005 43.4588 83.5005 47.4588C87.8338 51.9588 95.0005 62.4588 89.0005 68.4588C81.4009 73.6258 72.6026 62.3272 69.1534 56.032C66.3674 51.2044 64.9652 45.5222 69.1534 42.6437Z" fill="#FFB36E"/>
<path d="M69.1534 56.032C66.3674 51.2044 64.9652 45.5222 69.1534 42.6437C74.7864 38.7722 79.5005 43.4588 83.5005 47.4588C85.3337 49.3059 89.4 54.3002 91 59.5002" stroke="#FF8E00" stroke-linecap="round"/>
<path d="M49.79 42.6437C44.1569 38.7722 39.4429 43.4588 35.4428 47.4588C31.1095 51.9588 23.9429 62.4588 29.9429 68.4588C37.5425 73.6258 46.3408 62.3272 49.79 56.032C52.576 51.2044 53.9782 45.5222 49.79 42.6437Z" fill="#FFB36E"/>
<path d="M49.79 56.032C52.576 51.2044 53.9782 45.5222 49.79 42.6437C44.1569 38.7722 39.4429 43.4588 35.4428 47.4588C33.6097 49.3059 29.5434 54.3002 27.9434 59.5002" stroke="#FF8E00" stroke-linecap="round"/>
</svg>
