<svg width="120" height="120" viewBox="0 0 120 120" fill="none" xmlns="http://www.w3.org/2000/svg">
<path d="M105.395 43.7265C105.047 55.3134 92.521 65.8166 86.3016 69.6199L85 69.4003L77 54.9155L90.9118 34.3517C100.491 31.531 105.54 38.8986 105.395 43.7265Z" fill="#FFB36E"/>
<path d="M88.1245 68.9149C92.8769 65.6828 99.213 57.9746 101.496 54.8303C110.332 40.9927 103 34.9158 96.4366 33.8084C95.6244 33.6779 93.6001 33.617 92.0001 34.417" stroke="#FF8E00" stroke-linecap="round"/>
<path d="M14.6929 43.7275C15.0409 55.3143 27.5666 65.8176 33.786 69.6209L35.0877 69.4013L43.0876 54.9165L29.1759 34.3527C19.597 31.532 14.5479 38.8996 14.6929 43.7275Z" fill="#FFB36E"/>
<path d="M31.9631 68.9159C27.2108 65.6838 20.8747 57.9756 18.5913 54.8313C9.75523 40.9937 17.0877 34.9168 23.651 33.8094C24.4632 33.6789 26.4876 33.618 28.0876 34.418" stroke="#FF8E00" stroke-linecap="round"/>
<path d="M71.4967 6.33165C78.4778 4.50794 82.2477 10.8006 82.2477 10.8006C84.0521 13.2162 85.708 16.3076 87.3755 19.7015C90.9649 26.9858 92.3243 33.8645 92.8025 39.1523C92.9313 40.0474 93 40.9562 93 41.877C93 55.7518 78.0016 67 59.5 67C40.9985 67 26 55.7518 26 41.877C26 41.0387 26.0554 40.2101 26.1624 39.3929C26.6231 34.074 27.9789 27.0969 31.6124 19.7015C33.2798 16.3079 34.9347 13.2161 36.7389 10.8006C36.7389 10.8006 40.51 4.50785 47.4912 6.33165C51.8627 7.47367 55.4679 11.2724 57.5524 13.953C58.4907 15.1596 60.5058 15.1584 61.4434 13.9512C63.5251 11.2709 67.1259 7.47347 71.4967 6.33165Z" fill="#FFB36E"/>
<path d="M33.286 90.0463C28.7342 77.7808 33.0753 63.7069 35.8148 58.2031H60.4706L61.1028 96.5329H58.574L57.3096 105.968C57.3096 110.214 54.3594 112.061 52.8842 112.455C45.2978 114.342 39.608 114.027 37.7114 113.634C29.1134 111.747 31.1787 106.951 33.286 104.789V90.0463Z" fill="#FFB36E"/>
<path d="M86.9073 90.0463C91.4592 77.7808 87.1181 63.7069 84.3785 58.2031H59.7227L59.0905 96.5329H61.6193L62.8837 105.968C62.8837 110.214 65.834 112.061 67.3091 112.455C74.8956 114.342 80.5854 114.027 82.482 113.634C91.0799 111.747 89.0147 106.951 86.9073 104.789V90.0463Z" fill="#FFB36E"/>
<path d="M33.1423 64.2031C31.0664 71.1095 29.6613 81.0838 32.9966 90.0915V104.973C30.8741 107.156 28.7938 111.997 37.4536 113.902C39.3639 114.299 45.0946 114.616 52.7355 112.711C54.2212 112.314 57.1923 110.45 57.1924 106.164L58.4658 96.6389H61.5332L62.8066 106.164C62.8068 110.45 65.7788 112.315 67.2645 112.711C74.9054 114.616 80.6362 114.299 82.5464 113.902C91.2057 111.997 89.1258 107.156 87.0034 104.973V90.0915C90.3387 81.0838 88.9336 71.1095 86.8577 64.2031" stroke="#FF8E00" stroke-linecap="round"/>
<path d="M80.9999 72.6303C80.9999 65.767 75.6858 60.2037 69.1298 60.2031C65.9789 60.2035 63.1157 61.4897 60.9912 63.5861C60.1798 64.3861 58.906 64.3861 58.0945 63.5861C55.9698 61.4883 53.1051 60.2032 49.9549 60.2031C43.3984 60.2031 38.0839 65.7667 38.0839 72.6303C37.7226 80.4879 41.5999 96.3031 59.9999 96.7031C66.8332 96.8212 80.5999 92.172 80.9999 72.6303Z" fill="#FFE9D5"/>
<path d="M54 95.7031C55.8333 96.4577 60.8 97.5142 66 95.7031" stroke="#FF8E00" stroke-linecap="round"/>
<path d="M34.5439 57.9773C29.2311 53.6041 26 47.8263 26 41.492C26 40.6674 26.0554 39.8524 26.1624 39.0486C26.6231 33.8169 27.9789 26.9542 31.6124 19.68C33.2798 16.342 34.9347 13.3009 36.739 10.925C36.739 10.925 40.51 4.73544 47.4912 6.52934C51.8708 7.65472 55.4813 11.403 57.564 14.0404C58.5034 15.2299 60.4932 15.2287 61.4318 14.0386C63.5118 11.4015 67.1178 7.65453 71.4967 6.52934C78.4778 4.73553 82.2477 10.925 82.2477 10.925C84.0521 13.301 85.708 16.3418 87.3755 19.68C90.9649 26.8449 92.3243 33.6108 92.8025 38.8119C92.9313 39.6924 93 40.5863 93 41.492C93 48.751 88.7567 55.279 82 59.8" stroke="#FF8E00" stroke-linecap="round"/>
<ellipse cx="75.0474" cy="36.9127" rx="8.37989" ry="5.02793" fill="#FF8E00"/>
<ellipse cx="44.8799" cy="36.9127" rx="8.37989" ry="5.02793" fill="#FF8E00"/>
<path d="M66 40C66 41.6569 63.5376 43 60.5 43C57.4624 43 55 41.6569 55 40" stroke="#1F1F1F" stroke-width="2.01117" stroke-linecap="round"/>
<path d="M63.2145 27.118L61.9999 28.9573" stroke="black" stroke-width="1.31429" stroke-linecap="round"/>
<path d="M60.2893 32.7377C59.9523 32.7377 59.6643 32.9007 59.4663 33.1427C59.3403 33.2787 59.2203 33.4667 59.1253 33.7277C58.7403 34.7827 56.8163 38.4337 52.9853 38.4337C50.4183 38.4337 48.4263 37.3927 47.6333 35.1307C47.1883 33.8617 47.0453 32.4027 47.0013 31.4957C46.9763 30.9867 47.3273 30.5427 47.8303 30.4577C49.7133 30.1407 54.4553 29.5477 59.1983 30.5877C59.5573 30.6667 59.9243 30.7057 60.2903 30.7057C60.6563 30.7057 61.0233 30.6657 61.3823 30.5877C66.1253 29.5477 70.8663 30.1407 72.7503 30.4577C73.2533 30.5427 73.6043 30.9867 73.5793 31.4957C73.5343 32.4037 73.3913 33.8627 72.9473 35.1307C72.1543 37.3927 70.1623 38.4337 67.5953 38.4337C63.7633 38.4337 61.8403 34.7827 61.4553 33.7277C61.3603 33.4667 61.2403 33.2787 61.1143 33.1427C60.9163 32.9017 60.6283 32.7377 60.2923 32.7377H60.2893Z" fill="#1F1F1F"/>
</svg>
