<svg width="120" height="120" viewBox="0 0 120 120" fill="none" xmlns="http://www.w3.org/2000/svg">
<path d="M21.1595 84.9115C19.5755 73.4281 30.1798 60.9879 35.6799 56.2031H37V91.7468C28.0237 96.1214 21.8195 89.6962 21.1595 84.9115Z" fill="#FFB36E"/>
<path d="M31.6428 93.2031C26.1428 92.8717 16.7456 88.4301 23.157 73.3156C24.8856 69.8353 29.8514 61.1806 34 57.2031" stroke="#FF8E00" stroke-linecap="round"/>
<path d="M98.8405 84.9115C100.425 73.4281 89.8202 60.9879 84.3201 56.2031H83V91.7468C91.9763 96.1214 98.1805 89.6962 98.8405 84.9115Z" fill="#FFB36E"/>
<path d="M71.4967 6.33165C78.4778 4.50794 82.2477 10.8006 82.2477 10.8006C84.0521 13.2162 85.708 16.3076 87.3755 19.7015C90.9649 26.9858 92.3243 33.8645 92.8025 39.1523C92.9313 40.0474 93 40.9562 93 41.877C93 55.7518 78.0016 67 59.5 67C40.9985 67 26 55.7518 26 41.877C26 41.0387 26.0554 40.2101 26.1624 39.3929C26.6231 34.074 27.9789 27.0969 31.6124 19.7015C33.2798 16.3079 34.9347 13.2161 36.7389 10.8006C36.7389 10.8006 40.51 4.50785 47.4912 6.33165C51.8627 7.47367 55.4679 11.2724 57.5524 13.953C58.4907 15.1596 60.5058 15.1584 61.4434 13.9512C63.5251 11.2709 67.1259 7.47347 71.4967 6.33165Z" fill="#FFB36E"/>
<path d="M33.286 90.0463C28.7342 77.7808 33.0753 63.7069 35.8148 58.2031H60.4706L61.1028 96.5329H58.574L57.3096 105.968C57.3096 110.214 54.3594 112.061 52.8842 112.455C45.2978 114.342 39.608 114.027 37.7114 113.634C29.1134 111.747 31.1787 106.951 33.286 104.789V90.0463Z" fill="#FFB36E"/>
<path d="M86.9073 90.0463C91.4592 77.7808 87.1181 63.7069 84.3785 58.2031H59.7227L59.0905 96.5329H61.6193L62.8837 105.968C62.8837 110.214 65.834 112.061 67.3091 112.455C74.8956 114.342 80.5854 114.027 82.482 113.634C91.0799 111.747 89.0147 106.951 86.9073 104.789V90.0463Z" fill="#FFB36E"/>
<path d="M33.1423 64.2031C31.0664 71.1095 29.6613 81.0838 32.9966 90.0915V104.973C30.8741 107.156 28.7938 111.997 37.4536 113.902C39.3639 114.299 45.0946 114.616 52.7355 112.711C54.2212 112.314 57.1923 110.45 57.1924 106.164L58.4658 96.6389H61.5332L62.8066 106.164C62.8068 110.45 65.7788 112.315 67.2645 112.711C74.9054 114.616 80.6362 114.299 82.5464 113.902C91.2057 111.997 89.1258 107.156 87.0034 104.973V90.0915C90.3387 81.0838 88.9336 71.1095 86.8577 64.2031" stroke="#FF8E00" stroke-linecap="round"/>
<path d="M80.9999 72.6303C80.9999 65.767 75.6858 60.2037 69.1298 60.2031C65.9789 60.2035 63.1157 61.4897 60.9912 63.5861C60.1798 64.3861 58.906 64.3861 58.0945 63.5861C55.9698 61.4883 53.1051 60.2032 49.9549 60.2031C43.3984 60.2031 38.0839 65.7667 38.0839 72.6303C37.7226 80.4879 41.5999 96.3031 59.9999 96.7031C66.8332 96.8212 80.5999 92.172 80.9999 72.6303Z" fill="#E4F3FE"/>
<path d="M54 95.7031C55.8333 96.4577 60.8 97.5142 66 95.7031" stroke="#FF8E00" stroke-linecap="round"/>
<path d="M88.3572 93.2031C93.8572 92.8717 103.254 88.4301 96.843 73.3156C95.1144 69.8353 90.1486 61.1806 86 57.2031" stroke="#FF8E00" stroke-linecap="round"/>
<path d="M34.5439 57.9773C29.2311 53.6041 26 47.8263 26 41.492C26 40.6674 26.0554 39.8524 26.1624 39.0486C26.6231 33.8169 27.9789 26.9542 31.6124 19.68C33.2798 16.342 34.9347 13.3009 36.739 10.925C36.739 10.925 40.51 4.73544 47.4912 6.52934C51.8708 7.65472 55.4813 11.403 57.564 14.0404C58.5034 15.2299 60.4932 15.2287 61.4318 14.0386C63.5118 11.4015 67.1178 7.65453 71.4967 6.52934C78.4778 4.73553 82.2477 10.925 82.2477 10.925C84.0521 13.301 85.708 16.3418 87.3755 19.68C90.9649 26.8449 92.3243 33.6108 92.8025 38.8119C92.9313 39.6924 93 40.5863 93 41.492C93 48.751 88.7567 55.279 82 59.8" stroke="#FF8E00" stroke-linecap="round"/>
<circle cx="54.9001" cy="31.8044" r="2.62857" fill="#111111"/>
<circle cx="63.443" cy="31.8044" r="2.62857" fill="#111111"/>
<ellipse cx="74.2858" cy="36.7323" rx="8.21429" ry="4.92857" fill="#FF8E00"/>
<ellipse cx="44.7143" cy="36.7323" rx="8.21429" ry="4.92857" fill="#FF8E00"/>
<path d="M65 41C65 39.3431 62.3137 38 59 38C55.6863 38 53 39.3431 53 41" stroke="#111111" stroke-width="1.97143" stroke-linecap="round"/>
<path d="M63 27L67 28" stroke="#1F1F1F" stroke-width="2" stroke-linecap="round"/>
<path d="M55 27L51 28" stroke="#1F1F1F" stroke-width="2" stroke-linecap="round"/>
<path d="M66.2012 34.185C66.2012 34.185 65.3852 37.9429 66.5025 40.0181C67.2153 41.3421 68.778 41.8825 69.9937 41.2289C71.209 40.5746 71.6182 38.9726 70.9049 37.6478C69.7876 35.5726 66.2012 34.185 66.2012 34.185Z" fill="#E4F3FE"/>
</svg>
