<svg width="56" height="56" viewBox="0 0 56 56" fill="none" xmlns="http://www.w3.org/2000/svg">
<g clip-path="url(#clip0_2530_9498)">
<path d="M28 3.95117C14.469 3.95117 3.5 13.7708 3.5 25.8836C3.5 30.7192 5.2626 35.1782 8.2292 38.8014C9.3156 40.1286 9.8126 41.8408 9.485 43.5236L8.148 50.3794C7.924 51.5302 9.128 52.4304 10.1682 51.8886L18.3064 47.6522C19.4558 47.0544 20.7788 46.8598 22.043 47.1468C23.9498 47.5794 25.9434 47.816 28 47.816C41.531 47.816 52.5 37.9964 52.5 25.8836C52.5 13.7708 41.531 3.95117 28 3.95117Z" fill="#D9D9D9"/>
<path d="M24.3351 17.5C24.9904 17.4964 25.582 17.8918 25.8294 18.4986L31.2379 31.7662C31.5723 32.5866 31.1784 33.5228 30.358 33.8572C29.5376 34.1917 28.6014 33.7977 28.2669 32.9773L27.476 31.037C27.4606 30.9994 27.424 30.9748 27.3834 30.9748H21.449C21.408 30.9748 21.3711 30.9999 21.356 31.038L20.5966 32.961C20.2712 33.785 19.3394 34.1892 18.5154 33.8638C17.6914 33.5384 17.2871 32.6066 17.6126 31.7826L22.8519 18.515C23.0926 17.9055 23.6798 17.5036 24.3351 17.5ZM22.7019 27.6297C22.676 27.6953 22.7244 27.7664 22.7949 27.7664H25.994C26.065 27.7664 26.1134 27.6945 26.0866 27.6287L24.4617 23.6426C24.4276 23.5591 24.3092 23.5597 24.276 23.6436L22.7019 27.6297Z" fill="#434343"/>
<path d="M35.4338 16.916C36.3183 16.9151 37.0361 17.5821 37.0371 18.4057L37.054 32.9231C37.0549 33.7467 36.3387 34.4151 35.4542 34.416C34.5697 34.4169 33.8518 33.75 33.8509 32.9264L33.834 18.4089C33.833 17.5853 34.5493 16.9169 35.4338 16.916Z" fill="#434343"/>
</g>
<defs>
<clipPath id="clip0_2530_9498">
<rect width="56" height="56" fill="white"/>
</clipPath>
</defs>
</svg>
