<svg width="68" height="63" viewBox="0 0 68 63" fill="none" xmlns="http://www.w3.org/2000/svg">
<path d="M45.207 1.34961C48.9065 0.383267 51.7806 1.57879 53.6904 2.99414C54.6384 3.69666 55.3544 4.45594 55.834 5.03809C56.0746 5.33012 56.2584 5.58077 56.3838 5.76172C56.4464 5.8521 56.4945 5.92578 56.5283 5.97852C56.5393 5.99566 56.5487 6.01074 56.5566 6.02344C58.3289 8.40453 59.9365 11.4146 61.5244 14.6465L61.8457 15.3096C65.1015 22.1561 66.3571 28.5964 66.8076 33.5781C66.9323 34.4611 67 35.3591 67 36.2705L66.9893 36.9258C66.7612 43.673 63.0209 49.6953 57.2275 54.04C51.4345 58.3844 43.5435 61.0955 34.8447 61.2607L34 61.2686C24.968 61.2685 16.7524 58.5247 10.7725 54.04C4.79219 49.5552 1 43.2826 1 36.2705L1.01074 35.6387C1.0315 35.0089 1.08231 34.3847 1.16309 33.7676C1.61483 28.6 2.93638 21.8272 6.46387 14.6475C8.05055 11.4181 9.65598 8.40879 11.4268 6.02832C11.4354 6.01457 11.4464 5.9981 11.459 5.97852C11.4928 5.9258 11.5409 5.85205 11.6035 5.76172C11.7289 5.5808 11.9128 5.33005 12.1533 5.03809C12.633 4.45595 13.3498 3.69665 14.2979 2.99414C16.208 1.57891 19.082 0.383327 22.7812 1.34961C27.2292 2.5116 30.8048 6.27706 32.832 8.8584C33.0855 9.18112 33.5147 9.37709 33.998 9.37695C34.4811 9.37673 34.9099 9.18097 35.1631 8.8584C37.1877 6.27713 40.7592 2.51156 45.207 1.34961Z" fill="#FFB36E" stroke="white" stroke-width="2"/>
<circle cx="29.6056" cy="26.6495" r="2.51087" fill="#111111"/>
<circle cx="37.7667" cy="26.6495" r="2.51087" fill="#111111"/>
<ellipse cx="48.1238" cy="31.3583" rx="7.84648" ry="4.70789" fill="#FF8E00"/>
<ellipse cx="19.8768" cy="31.3583" rx="7.84648" ry="4.70789" fill="#FF8E00"/>
<path d="M26.8496 35.4318C26.8496 35.9518 27.2708 36.373 27.7908 36.373C28.3109 36.373 28.7321 35.9518 28.7321 35.4318C28.7321 35.1893 28.9537 34.7166 29.8907 34.248C30.7714 33.8077 32.054 33.5074 33.5222 33.5074C34.9904 33.5074 36.273 33.8077 37.1537 34.248C38.0907 34.7166 38.3123 35.1893 38.3123 35.4318C38.3123 35.9518 38.7335 36.373 39.2535 36.373C39.7735 36.373 40.1948 35.9518 40.1948 35.4318C40.1948 34.0917 39.1333 33.132 37.9961 32.5633C36.8025 31.9666 35.2193 31.6249 33.5222 31.6249C31.825 31.6249 30.2419 31.9666 29.0483 32.5633C27.9111 33.132 26.8496 34.0917 26.8496 35.4318Z" fill="#111111"/>
<path d="M37.5746 21.1342C37.0629 21.0064 36.5449 21.3174 36.4169 21.8291C36.2891 22.3409 36.6002 22.8588 37.1119 22.9868L40.9328 23.942C41.4445 24.0698 41.9625 23.7588 42.0904 23.247C42.2182 22.7353 41.9072 22.2173 41.3955 22.0894L37.5746 21.1342Z" fill="#1F1F1F"/>
<path d="M29.4703 21.1342C29.9821 21.0064 30.5001 21.3174 30.628 21.8291C30.7558 22.3409 30.4448 22.8588 29.933 22.9868L26.1121 23.942C25.6004 24.0698 25.0824 23.7588 24.9545 23.247C24.8267 22.7353 25.1377 22.2173 25.6494 22.0894L29.4703 21.1342Z" fill="#1F1F1F"/>
<path d="M40.4015 28.9246C40.4015 28.9246 39.622 32.5142 40.6893 34.4965C41.3702 35.7613 42.8629 36.2774 44.0242 35.6531C45.185 35.0281 45.5759 33.4978 44.8946 32.2323C43.8273 30.25 40.4015 28.9246 40.4015 28.9246Z" fill="#E4F3FE"/>
</svg>
