<svg width="67" height="61" viewBox="0 0 67 61" fill="none" xmlns="http://www.w3.org/2000/svg">
<path d="M45.749 1.29883C48.8742 0.482446 51.2555 1.47089 52.8945 2.68555C53.7209 3.29798 54.3526 3.96589 54.7773 4.48145C54.9889 4.73825 55.1471 4.95502 55.25 5.10352C55.3012 5.17746 55.3389 5.23411 55.3623 5.27051C55.374 5.28871 55.3821 5.30213 55.3867 5.30957C55.3889 5.31308 55.3901 5.31547 55.3906 5.31641L55.416 5.3584L55.4463 5.39941C57.1913 7.73556 58.8132 10.7552 60.4775 14.1426L60.4785 14.1436C64.0013 21.2926 65.3367 28.0457 65.8066 33.2422L65.8086 33.2686L65.8125 33.2949C65.9348 34.1451 66 35.0062 66 35.877C66 42.429 62.4608 48.4374 56.5879 52.8418C50.7147 57.2462 42.5552 60 33.5 60C24.4448 60 16.2853 57.2462 10.4121 52.8418C4.53922 48.4374 1 42.429 1 35.877L1.00977 35.2832C1.02928 34.691 1.07822 34.1037 1.1543 33.5225L1.15723 33.501L1.1582 33.4795C1.61093 28.2529 2.94314 21.402 6.50977 14.1426C8.17403 10.7553 9.79527 7.73538 11.54 5.39941L11.5703 5.3584L11.5957 5.31641C11.5963 5.3155 11.5974 5.31311 11.5996 5.30957C11.6042 5.30213 11.6123 5.28872 11.624 5.27051C11.6474 5.23412 11.6851 5.17746 11.7363 5.10352C11.8392 4.95502 11.9974 4.73825 12.209 4.48145C12.6338 3.96585 13.2662 3.29807 14.0928 2.68555C15.7321 1.47089 18.1133 0.482541 21.2383 1.29883C25.2682 2.35163 28.699 5.91279 30.7627 8.56641C32.1018 10.2884 34.8959 10.2865 36.2334 8.56445C38.2941 5.91129 41.7201 2.35148 45.749 1.29883Z" fill="#FFB36E" stroke="white" stroke-width="2"/>
<ellipse cx="49.0479" cy="30.9127" rx="8.37989" ry="5.02793" fill="#FF8E00"/>
<ellipse cx="18.8799" cy="30.9127" rx="8.37989" ry="5.02793" fill="#FF8E00"/>
<path d="M43.0131 31.248C43.0131 34.21 38.8111 36.6112 33.6277 36.6112C28.4442 36.6112 24.2422 34.21 24.2422 31.248" stroke="#1F1F1F" stroke-width="2.01117" stroke-linecap="round"/>
<path d="M41 24.2031L37.6784 26.2791C37.3651 26.475 37.3651 26.9313 37.6784 27.1271L41 29.2031" stroke="#1F1F1F" stroke-width="2" stroke-linecap="round"/>
<path d="M26.5 24.2031L29.8216 26.2791C30.1349 26.475 30.1349 26.9313 29.8216 27.1271L26.5 29.2031" stroke="#1F1F1F" stroke-width="2" stroke-linecap="round"/>
</svg>
