<svg width="68" height="63" viewBox="0 0 68 63" fill="none" xmlns="http://www.w3.org/2000/svg">
<path d="M45.207 1.34961C48.9065 0.383267 51.7806 1.57879 53.6904 2.99414C54.6384 3.69666 55.3544 4.45594 55.834 5.03809C56.0746 5.33012 56.2584 5.58077 56.3838 5.76172C56.4464 5.8521 56.4945 5.92578 56.5283 5.97852C56.5393 5.99566 56.5487 6.01074 56.5566 6.02344C58.3289 8.40453 59.9365 11.4146 61.5244 14.6465L61.8457 15.3096C65.1015 22.1561 66.3571 28.5964 66.8076 33.5781C66.9323 34.4611 67 35.3591 67 36.2705L66.9893 36.9258C66.7612 43.673 63.0209 49.6953 57.2275 54.04C51.4345 58.3844 43.5435 61.0955 34.8447 61.2607L34 61.2686C24.968 61.2685 16.7524 58.5247 10.7725 54.04C4.79219 49.5552 1 43.2826 1 36.2705L1.01074 35.6387C1.0315 35.0089 1.08231 34.3847 1.16309 33.7676C1.61483 28.6 2.93638 21.8272 6.46387 14.6475C8.05055 11.4181 9.65598 8.40879 11.4268 6.02832C11.4354 6.01457 11.4464 5.9981 11.459 5.97852C11.4928 5.9258 11.5409 5.85205 11.6035 5.76172C11.7289 5.5808 11.9128 5.33005 12.1533 5.03809C12.633 4.45595 13.3498 3.69665 14.2979 2.99414C16.208 1.57891 19.082 0.383327 22.7812 1.34961C27.2292 2.5116 30.8048 6.27706 32.832 8.8584C33.0855 9.18112 33.5147 9.37709 33.998 9.37695C34.4811 9.37673 34.9099 9.18097 35.1631 8.8584C37.1877 6.27713 40.7592 2.51156 45.207 1.34961Z" fill="#FFB36E" stroke="white" stroke-width="2"/>
<circle cx="29.9599" cy="26.7256" r="2.56149" fill="#1F1F1F"/>
<circle cx="38.2841" cy="26.7256" r="2.56149" fill="#1F1F1F"/>
<ellipse cx="48.8504" cy="31.5294" rx="8.00467" ry="4.8028" fill="#FF8E00"/>
<ellipse cx="20.034" cy="31.5294" rx="8.00467" ry="4.8028" fill="#FF8E00"/>
<path d="M43.0867 31.8496C43.0867 34.679 39.0728 36.9726 34.1215 36.9726C29.1701 36.9726 25.1562 34.679 25.1562 31.8496" stroke="#1F1F1F" stroke-width="2.01117" stroke-linecap="round"/>
</svg>
