<svg width="26" height="26" viewBox="0 0 26 26" fill="none" xmlns="http://www.w3.org/2000/svg">
<g clip-path="url(#clip0_570_6012)">
<path d="M21.41 18.141C21.7012 18.0351 21.9599 17.8355 22.1276 17.5463C22.3012 17.246 22.3421 16.9086 22.2784 16.594C22.5469 16.4387 22.7672 16.1975 22.8816 15.8836C22.9999 15.5579 22.9817 15.2186 22.8647 14.9196C23.102 14.7201 23.2768 14.4445 23.3353 14.1149C23.3951 13.7737 23.3191 13.4422 23.1514 13.1685C23.3503 12.9313 23.4751 12.629 23.4751 12.2949C23.4751 11.9485 23.3418 11.6358 23.1293 11.3947C23.284 11.1262 23.3542 10.8071 23.2963 10.4782C23.2359 10.1369 23.0506 9.85222 22.7997 9.65137C22.9057 9.36017 22.9193 9.03387 22.8049 8.71927C22.6866 8.39362 22.4546 8.14532 22.1725 7.99127C22.2258 7.68577 22.1829 7.36207 22.0158 7.07282C21.8423 6.77252 21.5712 6.56842 21.2664 6.46572C21.2664 6.15567 21.1676 5.84432 20.9524 5.58822C20.7295 5.32302 20.4266 5.16897 20.1087 5.12087C20.0548 4.81537 19.9033 4.52612 19.6472 4.31097C19.382 4.08802 19.0564 3.98922 18.7353 3.99702C18.6293 3.70582 18.4298 3.44712 18.1405 3.28007C17.8402 3.10652 17.5029 3.06557 17.1883 3.12927C17.0329 2.86082 16.7918 2.64047 16.4778 2.52607C16.1522 2.40777 15.8129 2.42532 15.5139 2.54297C15.3143 2.30572 15.0387 2.13087 14.7092 2.07237C14.3679 2.01192 14.0371 2.08862 13.7628 2.25632C13.5255 2.05742 13.2233 1.93262 12.8885 1.93262C12.5421 1.93262 12.2294 2.06587 11.9883 2.27842C11.7198 2.12372 11.4007 2.05352 11.0718 2.11137C10.7305 2.17182 10.4458 2.35707 10.245 2.60797C9.95375 2.50202 9.6268 2.48837 9.31285 2.60277C8.98721 2.72107 8.7389 2.95312 8.58486 3.23522C8.27936 3.18192 7.95566 3.22482 7.66641 3.39187C7.36611 3.56542 7.162 3.83647 7.05931 4.14132C6.74926 4.14132 6.43791 4.24012 6.18181 4.45527C5.91661 4.67822 5.76256 4.98112 5.71446 5.29897C5.40961 5.35292 5.11971 5.50437 4.90521 5.76047C4.68226 6.02567 4.58346 6.35132 4.59126 6.67242C4.30006 6.77837 4.04136 6.97792 3.87431 7.26717C3.70076 7.56747 3.65981 7.90482 3.72351 8.21942C3.45506 8.37477 3.23471 8.61592 3.12031 8.92987C3.00201 9.25552 3.01956 9.59482 3.13721 9.89382C2.89996 10.0934 2.72511 10.369 2.66661 10.6985C2.60616 11.0398 2.68286 11.3706 2.85056 11.6449C2.65166 11.8822 2.52686 12.1844 2.52686 12.5185C2.52686 12.865 2.66011 13.1776 2.87201 13.4188C2.71731 13.6872 2.64711 14.0064 2.70496 14.3353C2.76476 14.6765 2.95066 14.9612 3.20156 15.1621C3.09561 15.4533 3.08196 15.7796 3.19636 16.0942C3.31466 16.4198 3.54671 16.6681 3.82881 16.8222C3.77551 17.1277 3.81841 17.4514 3.98546 17.7406C4.15901 18.0409 4.43006 18.245 4.73491 18.3477C4.73491 18.6578 4.83371 18.9691 5.04886 19.2252C5.27181 19.4904 5.57471 19.6445 5.89255 19.6926L21.4107 18.1417L21.41 18.141Z" fill="#F0F0F0"/>
<path d="M10.0127 20.8818H15.9875V23.0041C15.9875 23.5917 15.5104 24.0681 14.9234 24.0681H11.0774C10.4898 24.0681 10.0133 23.591 10.0133 23.0041L10.0127 20.8818Z" fill="#8C8C8C"/>
<path fill-rule="evenodd" clip-rule="evenodd" d="M23.6406 10.7256C24.2588 10.7256 24.7548 11.2573 24.6956 11.8728C24.1191 17.8242 19.103 22.4763 13.0002 22.4763C6.8973 22.4763 1.88125 17.8236 1.3047 11.8728C1.2449 11.2573 1.74085 10.7256 2.35965 10.7256H23.6406Z" fill="#BFBFBF"/>
</g>
<defs>
<clipPath id="clip0_570_6012">
<rect width="26" height="26" fill="white"/>
</clipPath>
</defs>
</svg>
