<svg width="34" height="31" viewBox="0 0 34 31" fill="none" xmlns="http://www.w3.org/2000/svg">
<path d="M22.6056 0.309476C26.0365 -0.586791 27.8892 2.50575 27.8892 2.50575C28.776 3.6929 29.5897 5.21219 30.4092 6.88014C32.1733 10.46 32.8414 13.8406 33.0764 16.4393C33.1397 16.8792 33.1734 17.3258 33.1734 17.7783C33.1734 24.5972 25.8024 30.1251 16.7098 30.1251C7.61713 30.1251 0.246094 24.5971 0.246094 17.7783C0.246096 17.3664 0.273319 16.9592 0.325887 16.5575C0.552312 13.9435 1.21865 10.5146 3.00433 6.88014C3.82377 5.21232 4.63708 3.69286 5.52378 2.50575C5.52378 2.50575 7.37706 -0.586836 10.808 0.309476C12.9564 0.870724 14.7282 2.73763 15.7526 4.055C16.2138 4.64799 17.2041 4.64739 17.6649 4.05412C18.6879 2.73688 20.4575 0.870626 22.6056 0.309476Z" fill="#FFB36E"/>
<path d="M32.9274 17.5888C32.9273 17.1562 32.8944 16.7284 32.8328 16.3069L32.8318 16.3007L32.8314 16.2939C32.5985 13.7607 31.9365 10.4669 30.1893 6.97937L30.1888 6.97889C29.3702 5.34001 28.5651 3.86328 27.6932 2.71515L27.6855 2.70507L27.6788 2.69451V2.69355C27.6782 2.69263 27.6769 2.69108 27.6754 2.68875C27.6725 2.68411 27.6679 2.67652 27.6615 2.66668C27.6486 2.64688 27.6284 2.61703 27.6015 2.57885C27.5476 2.50232 27.4659 2.39234 27.3572 2.26257C27.1393 2.00244 26.8147 1.66506 26.3887 1.35454C25.54 0.73587 24.2936 0.226114 22.6663 0.644234C20.5976 1.17581 18.8683 2.96002 17.8516 4.24902C17.2921 4.95831 16.1254 4.95908 15.5652 4.24998C14.5472 2.96086 12.8158 1.17598 10.7467 0.644234C9.11944 0.226095 7.8727 0.735858 7.02384 1.35454C6.59772 1.66512 6.27279 2.00242 6.05485 2.26257C5.94611 2.39238 5.86448 2.50232 5.81057 2.57885C5.78365 2.61706 5.76351 2.64688 5.75058 2.66668C5.74412 2.67656 5.73958 2.68411 5.73666 2.68875C5.73528 2.69095 5.73437 2.6926 5.73378 2.69355L5.7333 2.69451L5.72658 2.70507L5.7189 2.71515C4.84709 3.86323 4.04234 5.34007 3.22372 6.97889C1.45487 10.5201 0.794552 13.8616 0.570162 16.4096L0.569202 16.4202C0.518039 16.8046 0.491455 17.1946 0.491453 17.5888C0.491488 20.6126 2.0332 23.387 4.60065 25.5005C4.70543 25.5868 4.7205 25.7418 4.63425 25.8466C4.54802 25.9513 4.39347 25.9663 4.2887 25.8802C1.63434 23.6952 3.50794e-05 20.7909 0 17.5888C2.43857e-06 17.1763 0.027601 16.7685 0.080629 16.3664C0.309085 13.7722 0.981662 10.3681 2.7841 6.75956C3.60161 5.12295 4.42061 3.61499 5.31863 2.42959C5.31924 2.42863 5.32034 2.42782 5.32103 2.42671C5.32533 2.4199 5.33134 2.41005 5.33927 2.39791C5.35515 2.37361 5.37853 2.33924 5.40886 2.29617C5.46969 2.20982 5.55957 2.08876 5.67811 1.94726C5.91485 1.66464 6.268 1.29679 6.73396 0.957151C7.66945 0.275324 9.06501 -0.295237 10.8686 0.168139C13.1041 0.742578 14.9215 2.64207 15.9506 3.94522C16.3137 4.40505 17.1027 4.40482 17.4658 3.94474C18.4935 2.64168 20.3087 0.742528 22.544 0.168139C24.3476 -0.295315 25.7432 0.275292 26.6786 0.957151C27.1445 1.29678 27.4973 1.66464 27.734 1.94726C27.8525 2.08881 27.9424 2.2098 28.0032 2.29617C28.0336 2.33937 28.0569 2.37406 28.0728 2.39839C28.0807 2.41052 28.0872 2.41991 28.0915 2.42671C28.0926 2.42839 28.0931 2.43017 28.0939 2.43151C28.9916 3.61672 29.8117 5.1234 30.6289 6.75956H30.6285C32.4091 10.3141 33.0838 13.6704 33.3209 16.2493C33.3846 16.6889 33.4188 17.1358 33.4188 17.5888C33.4188 21.2592 31.2731 24.5362 27.9039 26.7906C27.7911 26.8661 27.6381 26.8357 27.5626 26.7229C27.4873 26.6102 27.5177 26.4576 27.6303 26.3822C30.9023 24.1929 32.9273 21.0532 32.9274 17.5888Z" fill="#FF8E00"/>
<ellipse cx="24.3507" cy="15.3382" rx="4.11832" ry="2.47099" fill="#FF8E00"/>
<ellipse cx="9.52457" cy="15.3382" rx="4.11832" ry="2.47099" fill="#FF8E00"/>
<path d="M14.0039 16.8557C14.0039 16.5827 14.2253 16.3613 14.4982 16.3613C14.7712 16.3613 14.9926 16.5827 14.9926 16.8557C14.9926 16.9972 15.1046 17.2339 15.5267 17.4642C15.9302 17.6843 16.5213 17.8357 17.2012 17.8357C17.8812 17.8357 18.4722 17.6843 18.8757 17.4642C19.2979 17.2339 19.4099 16.9972 19.4099 16.8557C19.4099 16.5827 19.6313 16.3613 19.9042 16.3613C20.1772 16.3613 20.3986 16.5827 20.3986 16.8557C20.3986 17.5283 19.9054 18.0286 19.3494 18.3319C18.7746 18.6455 18.014 18.8244 17.2012 18.8244C16.3884 18.8244 15.6279 18.6455 15.053 18.3319C14.497 18.0286 14.0039 17.5283 14.0039 16.8557Z" fill="#1F1F1F"/>
<path d="M18.2657 10.3467C18.364 10.1979 18.5645 10.157 18.7133 10.2552C18.8621 10.3535 18.9031 10.5539 18.8049 10.7027L18.2081 11.6068C18.1098 11.7556 17.9094 11.7966 17.7606 11.6984C17.6118 11.6001 17.5708 11.3996 17.669 11.2508L18.2657 10.3467Z" fill="black"/>
<path d="M17.0975 13.2868C16.9318 13.2868 16.7903 13.367 16.693 13.4859C16.6311 13.5527 16.5721 13.6451 16.5254 13.7734C16.3362 14.2919 15.3906 16.0862 13.5079 16.0862C12.2463 16.0862 11.2673 15.5746 10.8776 14.4629C10.6589 13.8392 10.5886 13.1222 10.567 12.6765C10.5547 12.4263 10.7272 12.2081 10.9744 12.1663C11.8998 12.0105 14.2303 11.7191 16.5613 12.2302C16.7377 12.269 16.9181 12.2882 17.0979 12.2882C17.2778 12.2882 17.4582 12.2686 17.6346 12.2302C19.9656 11.7191 22.2955 12.0105 23.2214 12.1663C23.4686 12.2081 23.6411 12.4263 23.6289 12.6765C23.6067 13.1227 23.5365 13.8397 23.3183 14.4629C22.9285 15.5746 21.9496 16.0862 20.688 16.0862C18.8048 16.0862 17.8597 14.2919 17.6705 13.7734C17.6238 13.6451 17.5648 13.5527 17.5029 13.4859C17.4056 13.3674 17.2641 13.2868 17.0989 13.2868H17.0975Z" fill="#1F1F1F"/>
</svg>
