<svg width="26" height="26" viewBox="0 0 26 26" fill="none" xmlns="http://www.w3.org/2000/svg">
<g clip-path="url(#clip0_570_5998)">
<path d="M22.2222 21.7988V3.35114C22.2222 2.75704 21.7406 2.27539 21.1465 2.27539H4.85358C4.25948 2.27539 3.77783 2.75704 3.77783 3.35114V21.7988C3.77783 22.1517 3.95073 22.4826 4.24128 22.6834L5.47108 23.5349C5.83963 23.7897 6.32713 23.7897 6.69503 23.5349L7.77663 22.7868C8.14518 22.532 8.63268 22.532 9.00058 22.7868L10.0822 23.5349C10.4507 23.7897 10.9382 23.7897 11.3061 23.5349L12.3871 22.7868C12.7556 22.532 13.2431 22.532 13.611 22.7868L14.6926 23.5349C15.0612 23.7897 15.5487 23.7897 15.9166 23.5349L16.9982 22.7868C17.3667 22.532 17.8542 22.532 18.2221 22.7868L19.3037 23.5349C19.6723 23.7897 20.1598 23.7897 20.5277 23.5349L21.7575 22.6834C22.048 22.4826 22.2209 22.1517 22.2209 21.7988H22.2222Z" fill="white"/>
<path d="M19.74 17.7988H6.26025V18.4488H19.74V17.7988Z" fill="black"/>
<path d="M19.7397 15.4414H17.96V16.0914H19.7397V15.4414Z" fill="black"/>
<path d="M19.7397 13.083H17.96V13.733H19.7397V13.083Z" fill="black"/>
<path d="M19.7397 10.7246H17.96V11.3746H19.7397V10.7246Z" fill="black"/>
<path d="M13.24 15.4414H6.26025V16.0914H13.24V15.4414Z" fill="black"/>
<path d="M13.24 13.083H6.26025V13.733H13.24V13.083Z" fill="black"/>
<path d="M13.24 10.7246H6.26025V11.3746H13.24V10.7246Z" fill="black"/>
<path d="M19.74 6.00879H6.26025V6.65879H19.74V6.00879Z" fill="black"/>
</g>
<defs>
<clipPath id="clip0_570_5998">
<rect width="26" height="26" fill="white"/>
</clipPath>
</defs>
</svg>
