<svg width="24" height="24" viewBox="0 0 24 24" fill="none" xmlns="http://www.w3.org/2000/svg">
<path fill-rule="evenodd" clip-rule="evenodd" d="M17.6866 11.1006L8.53622 20.2539C8.31598 20.4734 8.04467 20.6351 7.74716 20.7256L3.61239 21.9795C3.53028 22.0042 3.44262 22.0063 3.35946 21.9854C3.27638 21.9645 3.20039 21.9218 3.13974 21.8613C3.07907 21.8008 3.03578 21.7247 3.01474 21.6416C2.9937 21.5585 2.99507 21.4708 3.01962 21.3887L4.27548 17.2549C4.36679 16.9571 4.52951 16.6858 4.75009 16.4658L13.8995 7.31348L17.6866 11.1006ZM19.3224 3C20.0325 3.00009 20.7138 3.28207 21.2159 3.78418C21.7181 4.28646 22.0002 4.96846 22.0001 5.67871C21.9999 6.38882 21.7181 7.0702 21.2159 7.57227L19.1007 9.68652L15.3136 5.89941L17.4288 3.78418C17.931 3.28207 18.6122 2.99996 19.3224 3Z" fill="#262626"/>
</svg>
