<svg width="24" height="24" viewBox="0 0 24 24" fill="none" xmlns="http://www.w3.org/2000/svg">
<path fill-rule="evenodd" clip-rule="evenodd" d="M12.0001 2.01758C12.5822 2.01761 13.1436 2.23439 13.5743 2.62598C14.0049 3.01764 14.274 3.55625 14.3292 4.13574C14.3623 4.51019 14.4854 4.87156 14.6876 5.18848C14.8897 5.5054 15.1657 5.76916 15.4913 5.95703C15.8166 6.14469 16.1824 6.2511 16.5577 6.26758C16.9332 6.284 17.3077 6.20952 17.6485 6.05078C18.1775 5.81065 18.7769 5.77671 19.3301 5.9541C19.8835 6.13157 20.351 6.50856 20.6417 7.01172C20.9323 7.51483 21.026 8.10786 20.9034 8.67578C20.7808 9.24371 20.4509 9.7456 19.9786 10.084C19.671 10.2998 19.4195 10.5866 19.2462 10.9199C19.0728 11.2533 18.9825 11.6242 18.9825 12C18.9825 12.3756 19.0729 12.7458 19.2462 13.0791C19.4195 13.4125 19.671 13.6992 19.9786 13.915C20.4509 14.2534 20.7807 14.7554 20.9034 15.3232C21.026 15.8912 20.9324 16.4851 20.6417 16.9883C20.351 17.4913 19.8834 17.8685 19.3301 18.0459C18.7769 18.2232 18.1775 18.1884 17.6485 17.9482C17.3077 17.7895 16.9332 17.715 16.5577 17.7314C16.1825 17.7479 15.8166 17.8544 15.4913 18.042C15.1657 18.2298 14.8897 18.4937 14.6876 18.8105C14.4854 19.1275 14.3623 19.4888 14.3292 19.8633C14.274 20.4429 14.005 20.9813 13.5743 21.373C13.1436 21.7647 12.5822 21.9814 12.0001 21.9814C11.4179 21.9814 10.8566 21.7647 10.4258 21.373C9.99509 20.9813 9.7251 20.4429 9.66998 19.8633C9.63693 19.4888 9.51472 19.1275 9.31256 18.8105C9.11036 18.4936 8.83451 18.2299 8.50885 18.042C8.18324 17.8542 7.817 17.7478 7.44147 17.7314C7.06582 17.7151 6.69141 17.7893 6.35065 17.9482C5.82154 18.1885 5.22136 18.2234 4.66803 18.0459C4.11484 17.8684 3.64714 17.4913 3.35651 16.9883C3.06582 16.4851 2.97312 15.8912 3.09576 15.3232C3.21846 14.7554 3.54826 14.2534 4.02057 13.915C4.32813 13.6992 4.57966 13.4125 4.75299 13.0791C4.92623 12.7458 5.01661 12.3756 5.01666 12C5.01666 11.6242 4.92635 11.2533 4.75299 10.9199C4.57963 10.5865 4.32818 10.2998 4.02057 10.084C3.54883 9.74543 3.22007 9.24339 3.09772 8.67578C2.97545 8.10825 3.06813 7.51545 3.35846 7.0127C3.64884 6.50994 4.11628 6.1328 4.66901 5.95508C5.22164 5.77753 5.82082 5.81149 6.34967 6.05078C6.69035 6.20947 7.06405 6.28396 7.43951 6.26758C7.81501 6.25116 8.18133 6.14484 8.5069 5.95703C8.8325 5.76916 9.10843 5.5054 9.31061 5.18848C9.51273 4.87159 9.63492 4.51014 9.66803 4.13574L9.70123 3.9209C9.79558 3.4242 10.0489 2.96876 10.4258 2.62598C10.8566 2.23443 11.418 2.01758 12.0001 2.01758ZM11.9991 9C10.3423 9.00003 8.99908 10.3432 8.99908 12C8.99908 13.6568 10.3423 15 11.9991 15C13.6559 15 14.9991 13.6569 14.9991 12C14.9991 10.3431 13.6559 9 11.9991 9Z" fill="#262626"/>
</svg>
