<svg width="200" height="70" viewBox="0 0 200 70" fill="none" xmlns="http://www.w3.org/2000/svg">
<path d="M70.8422 25.3995C73.9362 28.6589 75.4845 33.519 75.4845 39.9824V58.1602C75.4845 61.9083 72.4482 64.9465 68.7025 64.9465C64.9568 64.9465 61.9205 61.9083 61.9205 58.1602V42.2441C61.9205 39.0677 61.3153 36.6979 60.1035 35.1348C58.893 33.573 57.2092 32.7915 55.0569 32.7915C52.5807 32.7915 50.6168 33.6534 49.1627 35.3774C47.7098 37.1013 46.9828 39.7399 46.9828 43.2945V58.2004C46.9828 61.9259 43.9641 64.9465 40.241 64.9465C36.5179 64.9465 33.4992 61.9259 33.4992 58.2004V42.2441C33.4992 35.9428 31.1573 32.7915 26.4748 32.7915C24.0526 32.7915 22.1276 33.6534 20.7024 35.3774C19.2747 37.1013 18.5627 39.7399 18.5627 43.2945V58.1602C18.5627 61.9083 15.5265 64.9465 11.7807 64.9465C8.03626 64.9478 5 61.9083 5 58.1614V24.8404C5 21.2707 7.89186 18.377 11.4593 18.377C15.0267 18.377 17.9186 21.2707 17.9186 24.8404V25.441C19.4794 23.8251 21.3227 22.6013 23.4499 21.7645C25.5758 20.9302 27.9026 20.513 30.4328 20.513C33.1777 20.513 35.7079 21.052 38.0222 22.1289C40.3364 23.2069 42.2476 24.8228 43.7544 26.9764C45.53 24.9296 47.6822 23.3414 50.2137 22.2093C52.7427 21.0784 55.4612 20.513 58.3682 20.513C63.5881 20.513 67.7469 22.1427 70.8422 25.4008V25.3995Z" fill="#FF8E00"/>
<path d="M121.419 47.1733H94.7013C95.2927 49.435 96.5308 51.2004 98.4144 52.4644C100.298 53.731 102.666 54.363 105.519 54.363C107.565 54.363 109.354 54.0539 110.888 53.4344C111.234 53.295 111.577 53.1379 111.918 52.962C114.205 51.7809 117.009 52.3677 118.699 54.309C121.1 57.0657 120.286 61.3202 117.061 63.0416C113.774 64.7969 109.792 65.674 105.116 65.674C100.44 65.674 96.1001 64.7052 92.441 62.7664C88.7794 60.8264 85.9541 58.1476 83.9639 54.7274C81.9723 51.3085 80.9766 47.4435 80.9766 43.1337C80.9766 38.8239 81.9585 34.9476 83.9237 31.4998C85.8876 28.0532 88.5923 25.3593 92.038 23.4205C95.4823 21.4817 99.331 20.5117 103.583 20.5117C107.835 20.5117 111.455 21.4277 114.766 23.2584C118.076 25.0904 120.687 27.7416 122.598 31.2158C124.508 34.69 125.463 38.7435 125.463 43.3749C125.328 45.5097 123.557 47.1721 121.419 47.1721V47.1733ZM97.5668 33.2363C95.9243 34.6096 94.8884 36.5358 94.4577 39.0124H112.704C112.273 36.5886 111.264 34.6775 109.677 33.2765C108.088 31.8767 106.084 31.1756 103.662 31.1756C101.24 31.1756 99.2079 31.8617 97.5668 33.235V33.2363Z" fill="#FF8E00"/>
<path d="M144.597 11.7863V58.1599C144.597 61.908 141.561 64.9462 137.815 64.9462C134.069 64.9462 131.033 61.908 131.033 58.1599V11.7863C131.033 8.03821 134.069 5 137.815 5C141.561 5 144.597 8.03821 144.597 11.7863Z" fill="#FF8E00"/>
<path d="M161.51 62.8066C157.984 60.8955 155.225 58.2154 153.233 54.7676C151.242 51.321 150.246 47.4435 150.246 43.1337C150.246 38.8239 151.241 34.881 153.233 31.4596C155.224 28.0394 157.984 25.3605 161.51 23.4205C165.034 21.4817 169.031 20.5117 173.499 20.5117C177.967 20.5117 181.882 21.4817 185.408 23.4205C188.933 25.3593 191.691 28.0394 193.684 31.4596C195.675 34.881 196.672 38.7711 196.672 43.1337C196.672 47.4962 195.675 51.321 193.684 54.7676C191.693 58.2154 188.933 60.8955 185.408 62.8066C181.882 64.719 177.911 65.674 173.499 65.674C169.086 65.674 165.034 64.719 161.51 62.8066ZM180.282 51.0911C182.058 49.1247 182.947 46.4735 182.947 43.1324C182.947 39.7914 182.072 37.061 180.322 35.0934C178.572 33.1282 176.298 32.1444 173.5 32.1444C170.703 32.1444 168.494 33.1282 166.718 35.0934C164.941 37.0598 164.054 39.7386 164.054 43.1324C164.054 46.5262 164.941 49.1247 166.718 51.0911C168.494 53.0575 170.755 54.0401 173.5 54.0401C176.245 54.0401 178.505 53.0575 180.282 51.0911Z" fill="#FF8E00"/>
</svg>
