<svg width="375" height="173" viewBox="0 0 375 173" fill="none" xmlns="http://www.w3.org/2000/svg">
<g filter="url(#filter0_d_891_5820)">
<path d="M116.259 12.1807C116.116 8.76853 118.766 5.8866 122.178 5.74371L235.317 1.00561C238.729 0.86271 241.611 3.51295 241.754 6.92507L246.767 126.628C246.909 130.04 244.259 132.922 240.847 133.065L127.709 137.803C124.297 137.946 121.415 135.295 121.272 131.883L116.259 12.1807Z" fill="#FF8E00" shape-rendering="crispEdges"/>
<path d="M122.194 6.13009L235.332 1.392C238.531 1.25803 241.234 3.74234 241.368 6.9412L246.381 126.644C246.515 129.843 244.029 132.544 240.831 132.678L127.692 137.416C124.494 137.55 121.792 135.066 121.658 131.867L116.645 12.1644C116.511 8.96559 118.996 6.26407 122.194 6.13009Z" stroke="#FF9D46" stroke-width="0.772953" shape-rendering="crispEdges"/>
<path d="M134.04 21.9694L134.159 24.8051L135.426 24.7521L135.266 20.9269L136.545 20.8733L136.971 31.0577L135.692 31.1113L135.471 25.8381L134.204 25.8912L134.33 28.8837L130.046 29.0631L129.756 22.1488L134.04 21.9694ZM131.056 23.1582L131.257 27.9487L133.03 27.8744L132.83 23.0839L131.056 23.1582ZM138.781 20.5863L139.238 31.4947L137.947 31.5487L137.49 20.6403L138.781 20.5863ZM148.51 23.7085L148.556 24.7945L140.978 25.1119L140.807 21.0212L142.146 20.9651L142.272 23.9698L148.51 23.7085ZM149.746 26.0864L149.792 27.1725L147.402 27.2725L147.565 31.146L146.213 31.2026L146.051 27.3291L143.589 27.4322L143.752 31.3056L142.412 31.3617L142.25 27.4883L139.849 27.5889L139.803 26.5028L149.746 26.0864ZM158.51 20.582L158.551 21.5715L156.319 21.665C156.431 22.3251 157.378 22.8476 158.851 22.9491L158.445 23.9452C157.147 23.8303 156.198 23.3805 155.698 22.7185C155.252 23.4564 154.326 24.0149 153.019 24.2691L152.532 23.3225C154.015 23.0791 154.919 22.4308 154.98 21.7211L152.747 21.8146L152.706 20.8251L154.938 20.7316L154.903 19.8869L156.23 19.8313L156.266 20.676L158.51 20.582ZM156.391 23.6807L156.431 24.6219C157.328 24.548 158.231 24.4438 159.065 24.3061L159.2 25.2191C156.959 25.6756 154.45 25.8048 152.543 25.8847L152.356 24.8771C153.182 24.8425 154.123 24.7971 155.106 24.7257L155.064 23.7362L156.391 23.6807ZM161.089 26.1554L161.197 28.7377L155.272 28.9858L155.303 29.7219L161.614 29.4576L161.656 30.4591L154.005 30.7795L153.894 28.1248L159.819 27.8767L159.79 27.1889L153.841 27.438L153.8 26.4606L161.089 26.1554ZM160.817 19.6635L160.918 22.0889L162.39 22.0272L162.436 23.1253L160.964 23.187L161.071 25.7331L159.731 25.7891L159.477 19.7195L160.817 19.6635ZM165.416 20.0873C166.297 20.0504 167.071 20.3444 167.613 20.8657L170.219 20.7565L170.157 19.2723L171.496 19.2162L171.765 25.6357L170.426 25.6918L170.368 24.3042L167.761 24.4133C167.265 24.978 166.512 25.3299 165.637 25.3605C163.996 25.4413 162.707 24.3832 162.643 22.8507C162.578 21.3062 163.775 20.156 165.416 20.0873ZM165.464 21.2337C164.523 21.2731 163.884 21.8801 163.922 22.7972C163.959 23.6901 164.648 24.2656 165.59 24.2262C166.495 24.1883 167.133 23.5572 167.108 22.6637C167.057 21.7472 166.369 21.1958 165.464 21.2337ZM168.082 26.0196C170.375 25.9236 171.844 26.6478 171.9 27.9873C171.956 29.3267 170.553 30.1711 168.26 30.2672C165.98 30.3627 164.511 29.6385 164.467 28.2985C164.399 26.9596 165.802 26.1152 168.082 26.0196ZM168.125 27.0453C166.605 27.109 165.74 27.532 165.782 28.2435C165.799 28.9318 166.696 29.281 168.216 29.2174C169.761 29.1527 170.613 28.7301 170.585 28.0423C170.555 27.3304 169.67 26.9806 168.125 27.0453ZM168.261 21.9143C168.331 22.1351 168.376 22.3628 168.387 22.6102C168.397 22.8515 168.37 23.0823 168.331 23.3015L170.322 23.2181L170.264 21.8305L168.261 21.9143Z" fill="white"/>
<path d="M134.414 46.315L134.517 48.7752L135.784 48.7221L135.644 45.3751L136.605 45.3348L136.974 54.1511L136.013 54.1914L135.819 49.5457L134.552 49.5987L134.662 52.2172L130.987 52.3711L130.74 46.4689L134.414 46.315ZM131.723 47.221L131.904 51.5289L133.688 51.4541L133.508 47.1463L131.723 47.221ZM138.519 45.0749L138.915 54.5352L137.955 54.5755L137.558 45.1151L138.519 45.0749ZM147.325 47.8369L147.359 48.6499L140.803 48.9244L140.657 45.4507L141.671 45.4083L141.782 48.069L147.325 47.8369ZM148.405 49.8859L148.439 50.6989L146.286 50.7891L146.429 54.2206L145.416 54.263L145.272 50.8315L142.981 50.9275L143.124 54.359L142.121 54.401L141.978 50.9695L139.813 51.0601L139.779 50.2471L148.405 49.8859ZM154.153 45.2769L154.187 46.0899L153.289 46.1275L153.414 49.0944C153.861 49.0386 154.297 48.9781 154.718 48.9129L154.812 49.6599C152.914 50.0461 150.72 50.1803 149.094 50.2484L148.943 49.4297L150.104 49.3705L149.974 46.2663L149.077 46.3039L149.043 45.4909L154.153 45.2769ZM156.176 44.346L156.294 47.144L157.666 47.0865L157.702 47.9312L156.329 47.9886L156.468 51.304L155.465 51.346L155.173 44.388L156.176 44.346ZM156.931 52.7654L156.965 53.5784L150.566 53.8463L150.443 50.89L151.446 50.848L151.536 52.9913L156.931 52.7654ZM151.074 49.2981C151.523 49.2741 151.976 49.2392 152.434 49.1883L152.307 46.1686L150.945 46.2256L151.074 49.2981ZM165.759 43.9341L166.156 53.4156L165.153 53.4576L164.756 43.9761L165.759 43.9341ZM160.731 44.8533C162.136 44.7945 163.224 46.0393 163.309 48.0665C163.395 50.1043 162.414 51.4358 161.009 51.4946C159.584 51.5543 158.506 50.309 158.421 48.2712C158.336 46.244 159.306 44.913 160.731 44.8533ZM160.769 45.7508C159.893 45.7875 159.33 46.7418 159.392 48.2306C159.455 49.7299 160.096 50.6338 160.972 50.5971C161.838 50.5608 162.401 49.6065 162.338 48.1072C162.275 46.6184 161.635 45.7145 160.769 45.7508ZM176.1 47.2241L176.134 48.0477L174.667 48.1091L174.872 53.0188L173.869 53.0608L173.474 43.611L174.477 43.569L174.632 47.2856L176.1 47.2241ZM168.497 44.7396L168.72 50.0611C170.039 50.0058 171.413 49.8373 172.904 49.4628L173.056 50.3026C171.454 50.6975 169.958 50.8448 168.543 50.9041L167.762 50.9368L167.504 44.7812L168.497 44.7396ZM183.083 43.4096C185.163 43.3225 186.49 43.9438 186.537 45.0841C186.584 46.2033 185.313 46.9229 183.233 47.01C181.164 47.0967 179.827 46.4863 179.78 45.3671C179.732 44.2268 181.013 43.4962 183.083 43.4096ZM183.116 44.2014C181.659 44.2625 180.777 44.6696 180.815 45.3238C180.831 45.9577 181.743 46.2791 183.201 46.2287C184.647 46.1575 185.529 45.761 185.503 45.1275C185.475 44.4728 184.562 44.1409 183.116 44.2014ZM186.596 49.2596L186.728 52.4165L180.192 52.6903L180.06 49.5333L186.596 49.2596ZM181.086 50.2942L181.151 51.8357L185.723 51.6442L185.658 50.1027L181.086 50.2942ZM187.582 47.5577L187.616 48.3707L178.99 48.7319L178.956 47.9189L187.582 47.5577ZM191.448 44.2227C191.492 45.5324 192.439 46.6879 193.917 47.1126L193.443 47.9257C192.334 47.5861 191.478 46.8498 191.009 45.8805C190.631 46.9593 189.838 47.8334 188.73 48.2817L188.19 47.5216C189.647 46.9318 190.48 45.6171 190.423 44.2656L190.385 43.3576L191.409 43.3147L191.448 44.2227ZM196.05 48.8107L196.19 52.1367L195.186 52.1787L195.081 49.6658L189.675 49.8922L189.641 49.0791L196.05 48.8107ZM195.793 42.6763L196.031 48.3567L195.028 48.3987L194.79 42.7183L195.793 42.6763ZM201.445 42.5983C203.578 42.5089 204.848 43.0269 204.892 44.0828C204.936 45.1386 203.714 45.7715 201.582 45.8608C199.449 45.9501 198.179 45.4216 198.134 44.3658C198.09 43.3099 199.312 42.6876 201.445 42.5983ZM201.476 43.3373C199.966 43.4006 199.146 43.7628 199.18 44.322C199.193 44.9031 200.04 45.1744 201.55 45.1112C203.06 45.0479 203.881 44.7068 203.857 44.1261C203.834 43.5665 202.986 43.2741 201.476 43.3373ZM205.924 46.2607L205.958 47.0631L197.332 47.4244L197.298 46.6219L205.924 46.2607ZM204.901 47.8372L204.994 50.0545L199.482 50.2853L199.518 51.13L205.293 50.8881L205.325 51.6589L198.568 51.9419L198.47 49.5979L203.971 49.3675L203.94 48.6284L198.428 48.8592L198.397 48.1096L204.901 47.8372ZM217.028 47.9111L217.168 51.2581L216.165 51.3001L216.059 48.7555L210.473 48.9894L210.44 48.187L217.028 47.9111ZM216.772 41.7977L217.009 47.4571L216.006 47.4991L215.769 41.8397L216.772 41.7977ZM211.19 43.8719C211.22 44.5899 211.464 45.6109 212.2 46.2834C212.847 45.5688 212.995 44.5578 212.964 43.7976L212.949 43.4597L212.295 43.4872L212.261 42.6742L214.964 42.561L214.998 43.374L213.91 43.4195L213.924 43.7574C213.955 44.7292 214.417 45.9156 215.528 46.4402L215.03 47.1803C214.28 46.8257 213.804 46.1845 213.519 45.4455C213.335 46.2148 212.953 46.9447 212.236 47.3925C211.495 47.0005 211.049 46.3105 210.795 45.5701C210.573 46.3199 210.152 47.0038 209.445 47.4142L208.876 46.7188C209.929 46.093 210.3 44.8611 210.261 43.9108L210.246 43.5729L209.096 43.6211L209.062 42.8081L211.817 42.6927L211.851 43.5057L211.176 43.534L211.19 43.8719ZM220.567 42.3474C221.85 42.2937 222.835 43.3419 223.062 45.0882L225.015 45.0064L224.867 41.4587L225.859 41.4172L226.256 50.8987L225.264 50.9402L225.049 45.8194L223.107 45.9007C223.073 47.7478 222.16 48.9337 220.845 48.9887C219.431 49.048 218.384 47.8014 218.309 45.7632C218.214 43.7364 219.153 42.4067 220.567 42.3474ZM220.605 43.2449C219.75 43.2807 219.197 44.2346 219.26 45.7234C219.322 47.2227 219.953 48.1271 220.808 48.0912C221.663 48.0554 222.215 47.1015 222.153 45.6022C222.09 44.1135 221.46 43.2091 220.605 43.2449ZM138.914 61.0723L139.31 70.5327L138.297 70.5752L137.901 61.1148L138.914 61.0723ZM136.706 62.1379L136.74 62.9615L135.758 63.0026L135.942 67.3949C136.432 67.3427 136.916 67.2801 137.384 67.2076L137.467 67.9445C135.433 68.3576 133.185 68.4835 131.443 68.567L131.292 67.7377L132.538 67.675L132.348 63.1454L131.356 63.187L131.321 62.3634L136.706 62.1379ZM133.508 67.6132C133.983 67.5827 134.473 67.5463 134.963 67.4994L134.777 63.0437L133.319 63.1047L133.508 67.6132ZM148.084 65.1836L148.118 66.0071L141.53 66.283L141.343 61.8168L147.847 61.5444L147.881 62.368L142.369 62.5988L142.488 65.4179L148.084 65.1836ZM149.197 68.035L149.232 68.8691L140.574 69.2317L140.539 68.3976L149.197 68.035ZM150.789 61.1779L150.849 62.6244L152.676 62.5479L152.616 61.1014L153.545 61.0625L153.732 65.5287L150.026 65.684L149.839 61.2177L150.789 61.1779ZM150.942 64.8312L152.769 64.7547L152.709 63.3293L150.882 63.4058L150.942 64.8312ZM157.479 60.3054L157.717 65.9859L156.767 66.0257L156.664 63.5761L155.556 63.6225L155.656 66.0088L154.727 66.0477L154.498 60.5995L155.428 60.5606L155.521 62.799L156.63 62.7526L156.529 60.3452L157.479 60.3054ZM157.739 66.5138L157.875 69.7553L156.883 69.7968L156.781 67.3684L151.343 67.5961L151.309 66.7831L157.739 66.5138ZM162.909 60.2261C165.042 60.1368 166.311 60.6548 166.356 61.7106C166.4 62.7665 165.178 63.3994 163.045 63.4887C160.913 63.578 159.642 63.0495 159.598 61.9936C159.554 60.9378 160.776 60.3155 162.909 60.2261ZM162.94 60.9652C161.43 61.0285 160.609 61.3907 160.643 61.9499C160.657 62.531 161.504 62.8023 163.014 62.739C164.524 62.6758 165.345 62.3347 165.321 61.754C165.297 61.1944 164.45 60.902 162.94 60.9652ZM167.388 63.8886L167.422 64.691L158.795 65.0523L158.762 64.2498L167.388 63.8886ZM166.365 65.4651L166.458 67.6824L160.946 67.9132L160.981 68.7578L166.757 68.516L166.789 69.2867L160.032 69.5697L159.934 67.2258L165.435 66.9954L165.404 66.2563L159.892 66.4871L159.861 65.7375L166.365 65.4651ZM177.687 59.4486L177.781 61.687L179.153 61.6295L179.188 62.4636L177.816 62.5211L177.918 64.9707L176.915 65.0127L176.684 59.4906L177.687 59.4486ZM171.628 60.2418L171.685 61.6144L174.167 61.5104L174.109 60.1378L175.102 60.0963L175.287 64.5308L170.832 64.7174L170.646 60.2829L171.628 60.2418ZM171.78 63.8844L174.262 63.7805L174.2 62.3023L171.718 62.4062L171.78 63.8844ZM178.013 65.4638L178.046 66.2663L172.947 66.4798L173.018 68.1903L178.287 67.9696L178.32 68.7615L172.048 69.0242L171.91 65.7194L178.013 65.4638ZM181.999 59.9766C183.414 59.9174 184.471 61.1635 184.567 63.1903C184.642 65.2285 183.692 66.5587 182.278 66.6179C180.863 66.6772 179.795 65.4315 179.72 63.3933C179.625 61.3665 180.585 60.0359 181.999 59.9766ZM182.037 60.8741C181.171 60.9104 180.619 61.8643 180.681 63.353C180.744 64.8523 181.374 65.7567 182.24 65.7204C183.116 65.6837 183.669 64.7298 183.606 63.2305C183.544 61.7418 182.913 60.8374 182.037 60.8741ZM186.806 59.0667L186.961 62.7727L188.481 62.709L188.517 63.5537L186.996 63.6174L187.202 68.5271L186.199 68.5691L185.803 59.1087L186.806 59.0667ZM197.588 66.0825L197.623 66.9166L188.965 67.2792L188.93 66.4451L192.742 66.2855L192.66 64.3427L189.841 64.4608L189.637 59.5933L190.64 59.5513L190.709 61.1773L195.354 60.9827L195.286 59.3567L196.279 59.3152L196.482 64.1826L193.653 64.3011L193.734 66.2439L197.588 66.0825ZM190.81 63.6058L195.456 63.4112L195.388 61.7958L190.743 61.9903L190.81 63.6058ZM200.791 61.0724C200.854 62.5822 201.555 64.1712 202.854 64.8889L202.327 65.6831C201.418 65.187 200.776 64.2672 200.414 63.1824C200.11 64.4009 199.504 65.4523 198.609 66.0503L197.954 65.3268C199.262 64.4682 199.889 62.7707 199.821 61.1553L199.747 59.392L200.719 59.3514L200.791 61.0724ZM205.941 58.2654L206.337 67.7257L205.376 67.766L204.98 58.3056L205.941 58.2654ZM203.984 58.5271L204.353 67.3434L203.403 67.3832L203.201 62.5474L201.733 62.6089L201.698 61.7748L203.166 61.7133L203.034 58.5669L203.984 58.5271ZM215.952 65.3029L215.987 66.137L207.329 66.4996L207.294 65.6655L209.363 65.5788L209.26 63.1081C208.466 62.713 207.967 62.0516 207.932 61.207C207.87 59.7182 209.286 58.6753 211.313 58.5904C213.351 58.505 214.849 59.426 214.911 60.9147C214.946 61.7488 214.52 62.4383 213.778 62.8977L213.882 65.3895L215.952 65.3029ZM211.346 59.3928C209.858 59.4552 208.861 60.1421 208.903 61.1663C208.946 62.1799 209.998 62.8022 211.487 62.7398C212.965 62.6779 213.982 61.969 213.94 60.9554C213.897 59.9312 212.825 59.3309 211.346 59.3928ZM210.356 65.5372L212.869 65.432L212.78 63.3203C212.399 63.4367 211.973 63.5022 211.519 63.5212C211.076 63.5397 210.652 63.5099 210.268 63.4361L210.356 65.5372Z" fill="white"/>
<path d="M202.073 84.7274C202.041 83.9594 201.393 83.3634 200.625 83.3955L195.265 83.62C194.497 83.6522 193.901 84.3003 193.933 85.0683L193.984 86.2754L202.124 85.9345L202.073 84.7274Z" fill="#8595AA"/>
<path d="M209.846 94.7797C205.764 94.9507 202.581 98.4122 202.752 102.496C202.923 106.579 206.383 109.76 210.466 109.589C214.55 109.418 217.732 105.958 217.561 101.875C217.39 97.7931 213.929 94.6087 209.846 94.7797ZM210.311 105.891C208.268 105.977 206.536 104.383 206.45 102.34C206.43 101.847 206.511 101.376 206.668 100.939C206.267 100.685 205.977 100.268 205.956 99.7597C205.921 98.9349 206.564 98.2349 207.389 98.2004C207.897 98.1791 208.337 98.4322 208.623 98.8113C209.046 98.6184 209.51 98.498 210.001 98.4774C212.044 98.3918 213.777 99.9856 213.863 102.029C213.949 104.073 212.356 105.806 210.311 105.891Z" fill="#333D4B"/>
<path d="M225.335 84.9629L221.808 85.1106L222.436 88.4565C222.629 89.4836 223.287 90.2683 224.078 90.4105L227.512 91.0314C227.802 91.0842 228.017 91.3305 228.029 91.6248C228.041 91.919 227.848 92.1835 227.564 92.2593L224.193 93.164C223.419 93.3717 222.827 94.2099 222.721 95.2472L222.286 99.5126C222.254 99.8238 221.998 100.064 221.686 100.077C221.374 100.09 221.098 99.8722 221.041 99.5636L220.252 95.3505C220.06 94.3247 219.4 93.54 218.611 93.3978L215.177 92.778C214.887 92.7252 214.672 92.4789 214.66 92.1846C214.647 91.8904 214.841 91.6259 215.125 91.5501L218.495 90.6442C219.271 90.4365 219.862 89.5983 219.968 88.5611L220.313 85.1732L193.595 86.2922C191.036 86.3993 189.048 88.5609 189.155 91.1199L190.132 114.445C190.239 116.993 192.411 118.991 194.96 118.884L226.7 117.555C229.259 117.448 231.247 115.286 231.14 112.727L230.163 89.4025C230.056 86.8436 227.894 84.8557 225.335 84.9629ZM210.541 111.326C205.5 111.537 201.227 107.608 201.016 102.568C200.805 97.5273 204.734 93.2525 209.775 93.0414C214.817 92.8302 219.089 96.7604 219.3 101.802C219.512 106.843 215.582 111.115 210.541 111.326Z" fill="#4E5968"/>
<path d="M210.004 98.4762C209.513 98.4968 209.049 98.6172 208.626 98.8101C208.805 99.0452 208.937 99.317 208.95 99.6332C208.984 100.458 208.342 101.157 207.517 101.191C207.201 101.205 206.919 101.096 206.67 100.938C206.513 101.375 206.432 101.847 206.452 102.338C206.538 104.382 208.27 105.976 210.313 105.89C212.357 105.805 213.95 104.071 213.865 102.028C213.779 99.9845 212.048 98.3906 210.004 98.4762Z" fill="#4E5968"/>
<path d="M208.949 99.6335C208.936 99.3171 208.804 99.0452 208.626 98.8101C208.339 98.432 207.899 98.1776 207.391 98.1989C206.565 98.2335 205.923 98.9325 205.957 99.7588C205.979 100.267 206.269 100.685 206.669 100.939C206.919 101.096 207.201 101.205 207.517 101.192C208.342 101.158 208.985 100.458 208.95 99.6334L208.949 99.6335Z" fill="white"/>
<path d="M209.775 93.0426C204.734 93.2537 200.805 97.5274 201.016 102.569C201.227 107.61 205.499 111.538 210.541 111.327C215.582 111.116 219.511 106.843 219.3 101.803C219.089 96.7628 214.816 92.8314 209.775 93.0426ZM210.468 109.588C206.386 109.759 202.924 106.577 202.753 102.495C202.582 98.4126 205.764 94.95 209.848 94.779C213.931 94.608 217.391 97.7912 217.562 101.875C217.733 105.958 214.551 109.417 210.468 109.588Z" fill="#D0D6DE"/>
<path d="M228.027 91.6259C228.039 91.9155 227.841 92.1791 227.566 92.2602L224.192 93.1674C223.412 93.3742 222.82 94.2112 222.725 95.248L222.288 99.5136C222.255 99.8283 221.998 100.071 221.685 100.084C221.373 100.097 221.097 99.8768 221.037 99.5659L220.246 95.3519C220.052 94.3272 219.392 93.5425 218.609 93.4012L215.171 92.7793C214.89 92.7214 214.671 92.4753 214.659 92.1857C214.647 91.8961 214.845 91.6325 215.12 91.5514L218.493 90.6442C219.274 90.4375 219.854 89.6009 219.961 88.5636L220.307 85.1722L220.398 84.2981C220.431 83.9833 220.688 83.7405 221 83.7274C221.313 83.7143 221.589 83.9348 221.649 84.2457L221.801 85.1096L222.44 88.4597C222.622 89.4849 223.282 90.2696 224.077 90.4104L227.515 91.0323C227.796 91.0902 228.015 91.3363 228.027 91.6259Z" fill="#FFE63B"/>
</g>
<g filter="url(#filter1_d_891_5820)">
<path d="M265.767 15.676C265.943 13.2055 268.089 11.3452 270.559 11.5212L414.827 21.7938C417.297 21.9697 419.157 24.1152 418.981 26.5858L409.535 159.248C409.359 161.718 407.214 163.579 404.743 163.403L260.476 153.13C258.005 152.954 256.145 150.809 256.321 148.338L265.767 15.676Z" fill="white" shape-rendering="crispEdges"/>
<path d="M270.539 11.8007L414.807 22.0734C417.123 22.2383 418.866 24.2494 418.701 26.5655L409.255 159.228C409.09 161.544 407.079 163.288 404.763 163.123L260.496 152.851C258.179 152.686 256.436 150.674 256.601 148.358L266.047 15.6956C266.212 13.3797 268.223 11.636 270.539 11.8007Z" stroke="#F0F0F0" stroke-width="0.560591" shape-rendering="crispEdges"/>
<path d="M276.474 23.1825C276.562 21.9472 277.634 21.0171 278.87 21.1051L290.083 21.9036C291.319 21.9915 292.249 23.0642 292.161 24.2995L291.681 31.0401C291.593 32.2754 290.52 33.2055 289.285 33.1175L278.071 32.319C276.836 32.2311 275.906 31.1584 275.994 29.9231L276.474 23.1825Z" fill="#FF8E00"/>
<path d="M282.057 24.7054L281.72 29.4497L280.992 29.3979L281.279 25.3744L281.252 25.3726L280.066 26.0323L280.115 25.3443L281.35 24.655L282.057 24.7054ZM285.008 24.6125C285.893 24.6755 286.5 25.2127 286.448 25.9401C286.397 26.6609 285.719 27.1132 284.835 27.0436C283.95 26.9872 283.356 26.4444 283.407 25.7236C283.459 24.9962 284.123 24.5496 285.008 24.6125ZM284.972 25.1171C284.441 25.0793 284.035 25.3336 284.01 25.7665C283.973 26.192 284.34 26.5013 284.871 26.5325C285.415 26.5778 285.821 26.3236 285.852 25.8976C285.882 25.4651 285.516 25.1558 284.972 25.1171ZM287.982 24.5609L287.564 30.4257L286.948 30.3818L287.366 24.517L287.982 24.5609ZM282.869 27.3647C283.95 27.4417 285.453 27.5223 286.751 27.4238L286.763 27.8923C286.222 27.9558 285.661 27.9784 285.117 27.9792L284.969 30.0565L284.347 30.0121L284.492 27.9677C283.92 27.9533 283.383 27.9183 282.917 27.8884L282.869 27.3647Z" fill="white"/>
<path d="M281.001 41.7563L280.948 42.4934L275.798 42.1267L275.85 41.3895L277.885 41.5344L277.937 40.807L279.028 40.8847L278.976 41.6121L281.001 41.7563ZM278.348 42.5158C279.675 42.6103 280.479 43.1219 280.436 43.8598C280.373 44.6061 279.506 44.989 278.178 44.9043C276.872 44.8014 276.068 44.2996 276.121 43.5526C276.174 42.8154 277.041 42.4227 278.348 42.5158ZM278.298 43.2235C277.61 43.1745 277.175 43.3115 277.163 43.6267C277.131 43.9406 277.541 44.1476 278.229 44.1868C278.936 44.247 279.362 44.0995 279.384 43.7849C279.407 43.4704 279.006 43.2739 278.298 43.2235ZM275.237 45.011C276.918 45.1306 279.101 45.2664 281.004 45.1845L281.004 45.8662C280.239 45.9303 279.452 45.9533 278.678 45.9376L278.633 46.5667L282.516 46.8432L282.378 48.7697L277.454 48.4191L277.414 48.9793L282.594 49.3482L282.542 50.0854L276.29 49.6402L276.432 47.6547L281.346 48.0047L281.382 47.5034L276.448 47.152L276.5 46.4148L277.542 46.489L277.583 45.9189C276.77 45.8858 275.998 45.8357 275.31 45.7867L275.237 45.011ZM282.913 41.2602L282.539 46.509L281.448 46.4313L281.822 41.1825L282.913 41.2602ZM287.291 42.214L287.104 44.8483L285.02 44.6999L284.946 45.7418C285.973 45.81 286.744 45.8057 287.656 45.6977L287.702 46.5704C286.636 46.7019 285.729 46.667 284.422 46.5739L283.822 46.5312L284.016 43.8183L286.109 43.9674L286.177 43.014L284.074 42.8642L284.136 41.9894L287.291 42.214ZM291.415 41.8754L290.984 47.9303L289.942 47.8561L290.373 41.8012L291.415 41.8754ZM289.604 41.9243L289.238 47.0551L288.206 46.9817L288.372 44.6521L287.448 44.5863L287.511 43.7115L288.435 43.7773L288.572 41.8508L289.604 41.9243ZM288.505 47.5067C288.433 48.5093 289.497 49.5334 291.278 49.9072L290.796 50.7028C289.405 50.4012 288.349 49.6938 287.87 48.7854C287.253 49.6157 286.107 50.1664 284.692 50.2682L284.329 49.4124C286.135 49.2941 287.333 48.4309 287.414 47.4291L287.427 47.2423L288.518 47.32L288.505 47.5067ZM299.565 42.4458L298.931 51.3413L297.85 51.2643L298.193 46.448L296.384 46.3192L296.195 48.9829L291.968 48.682L292.399 42.6272L293.5 42.7056L293.343 44.9171L295.397 45.0634L295.554 42.8518L296.626 42.9281L296.448 45.4248L298.257 45.5535L298.483 42.3689L299.565 42.4458ZM293.131 47.8856L295.186 48.0319L295.336 45.9186L293.282 45.7723L293.131 47.8856ZM307.851 43.0359L307.218 51.9215L306.127 51.8438L306.449 47.3224L304.572 47.1887L304.636 46.2942L306.513 46.4279L306.76 42.9582L307.851 43.0359ZM304.855 43.7709C304.658 46.3946 303.568 48.5299 300.403 49.8259L299.894 48.9302C302.274 47.9685 303.369 46.535 303.692 44.5575L300.635 44.3398L300.697 43.4749L304.855 43.7709Z" fill="#1F1F1F"/>
<path d="M279.879 54.8869L279.738 56.8746L280.739 56.9459L280.696 57.5499L279.695 57.4785L279.526 59.8485L278.8 59.7968L279.153 54.8352L279.879 54.8869ZM277.819 55.3318L277.777 55.9205L275.438 55.7539L275.296 57.7493C276.629 57.8481 277.386 57.8597 278.254 57.7448L278.296 58.3394C277.358 58.4571 276.545 58.4452 275.077 58.3407L274.534 58.3021L274.761 55.1141L277.819 55.3318ZM279.734 61.0312L279.692 61.6199L275.059 61.29L275.22 59.0271L275.946 59.0788L275.827 60.753L279.734 61.0312ZM282.093 55.4902L282.018 56.5375L283.341 56.6317L283.415 55.5843L284.088 55.6322L283.858 58.8661L281.174 58.675L281.405 55.4412L282.093 55.4902ZM281.904 58.1353L283.227 58.2295L283.3 57.1974L281.978 57.1032L281.904 58.1353ZM286.985 55.4083L286.692 59.5212L286.004 59.4723L286.131 57.6986L285.328 57.6415L285.205 59.3692L284.532 59.3213L284.813 55.3765L285.486 55.4244L285.37 57.0452L286.173 57.1023L286.297 55.3593L286.985 55.4083ZM286.665 59.9035L286.498 62.2505L285.779 62.1993L285.905 60.441L281.967 60.1606L282.009 59.572L286.665 59.9035ZM293.466 55.862L293.214 59.4017L292.495 59.3505L292.747 55.8109L293.466 55.862ZM293.199 59.7156L293.078 61.4128L289.302 61.1439L289.254 61.809L293.26 62.0943L293.22 62.66L288.511 62.3247L288.636 60.5663L292.397 60.8342L292.441 60.2226L288.657 59.9531L288.696 59.395L293.199 59.7156ZM290.263 56.5945C290.204 57.4278 290.807 58.2467 291.848 58.6282L291.456 59.1612C290.667 58.863 290.096 58.3037 289.837 57.6244C289.479 58.3289 288.816 58.8541 287.952 59.0577L287.656 58.4604C288.743 58.2073 289.459 57.4285 289.53 56.5422L287.993 56.4328L288.035 55.8441L291.811 56.113L291.77 56.7017L290.263 56.5945ZM302.12 61.903L302.077 62.5069L295.808 62.0606L295.851 61.4566L298.611 61.6531L298.711 60.2464L296.67 60.1011L296.921 56.5768L297.647 56.6285L297.563 57.8058L300.927 58.0453L301.011 56.868L301.73 56.9192L301.479 60.4435L299.43 60.2976L299.33 61.7043L302.12 61.903ZM297.438 59.5641L300.802 59.8037L300.885 58.634L297.522 58.3945L297.438 59.5641ZM308.891 60.3335L308.85 60.9069L306.083 60.7099L306.038 61.3367C307.303 61.4883 308.008 61.9381 307.96 62.6185C307.907 63.36 307.007 63.7032 305.516 63.5894C304.018 63.4903 303.167 63.0225 303.22 62.281C303.268 61.6006 304.034 61.2555 305.319 61.2856L305.364 60.6587L302.604 60.4622L302.645 59.8888L308.891 60.3335ZM306.363 56.7727L306.316 57.4302L308.457 57.5826L308.415 58.1636L306.321 58.0144C306.373 58.679 307.279 59.2276 308.617 59.4304L308.356 59.9727C307.178 59.7813 306.247 59.3154 305.869 58.6431C305.395 59.2548 304.407 59.584 303.226 59.6074L303.036 59.033C304.386 59.0215 305.356 58.6066 305.51 57.9567L303.423 57.8081L303.465 57.2271L305.598 57.379L305.644 56.7215L306.363 56.7727ZM305.641 61.8463C304.586 61.7712 303.982 61.9433 303.954 62.3332C303.926 62.7231 304.5 62.9714 305.556 63.0389C306.595 63.1206 307.206 62.9566 307.234 62.5668C307.261 62.1769 306.68 61.9203 305.641 61.8463ZM315.427 57.4258L314.939 64.2757L314.243 64.2261L314.731 57.3762L315.427 57.4258ZM314.026 57.4566L313.571 63.8402L312.876 63.7907L313.111 60.488L312.339 60.4331C312.182 61.7666 311.55 62.559 310.702 62.491C309.807 62.4349 309.293 61.4532 309.398 59.9701C309.504 58.487 310.151 57.5957 311.045 57.667C311.879 57.7187 312.388 58.5502 312.381 59.8444L313.153 59.8994L313.33 57.4071L314.026 57.4566ZM310.997 58.3474C310.5 58.312 310.149 58.9248 310.071 60.018C309.993 61.1112 310.254 61.7675 310.751 61.8029C311.255 61.8389 311.614 61.2266 311.692 60.1334C311.769 59.0402 311.501 58.3833 310.997 58.3474ZM321.308 59.8961L321.254 60.6453L324.037 60.8434L323.995 61.4321L317.726 60.9857L317.768 60.3971L320.536 60.5941L320.589 59.8449L321.308 59.8961ZM323.648 58.211L323.609 58.769L321.537 58.6215C321.609 59.2222 322.539 59.7609 323.771 59.9332L323.496 60.4591C322.295 60.2699 321.325 59.759 321.015 59.0454C320.603 59.7076 319.566 60.0756 318.351 60.0928L318.152 59.5331C319.374 59.5356 320.386 59.1351 320.551 58.5513L318.494 58.4049L318.534 57.8468L323.648 58.211ZM323.339 62.2306L323.299 62.7887L318.208 62.4261L318.247 61.868L320.434 62.0237L320.477 61.4198L321.196 61.4709L321.153 62.0749L323.339 62.2306ZM320.725 62.8974C322.055 62.9921 322.798 63.36 322.756 63.9486C322.713 64.5449 321.926 64.8039 320.596 64.7092C319.266 64.6145 318.547 64.2483 318.589 63.6519C318.631 63.0633 319.395 62.8026 320.725 62.8974ZM320.69 63.3943C319.834 63.3333 319.343 63.429 319.331 63.7047C319.303 63.9794 319.775 64.159 320.632 64.2123C321.502 64.282 321.979 64.1699 322.006 63.8953C322.018 63.6195 321.561 63.4563 320.69 63.3943ZM326.421 58.7234C327.446 58.7964 328.106 59.7808 328.009 61.2492C327.896 62.7241 327.103 63.6051 326.079 63.5321C325.054 63.4592 324.387 62.4742 324.5 60.9993C324.596 59.5309 325.397 58.6505 326.421 58.7234ZM326.375 59.3733C325.748 59.3286 325.272 59.9709 325.195 61.0488C325.118 62.1344 325.498 62.8377 326.125 62.8823C326.76 62.9275 327.236 62.2852 327.313 61.1996C327.39 60.1217 327.01 59.4185 326.375 59.3733ZM329.959 58.4606L329.768 61.1439L330.869 61.2223L330.825 61.8339L329.724 61.7555L329.471 65.3105L328.745 65.2587L329.233 58.4088L329.959 58.4606ZM337.156 64.3901L337.113 64.994L330.845 64.5476L330.888 63.9437L332.386 64.0504L332.513 62.2615C331.973 61.9118 331.668 61.3945 331.712 60.7829C331.789 59.705 332.894 59.0691 334.362 59.1736C335.838 59.2787 336.842 60.0648 336.765 61.1427C336.722 61.7467 336.359 62.2087 335.786 62.4792L335.658 64.2834L337.156 64.3901ZM334.321 59.7546C333.243 59.6779 332.468 60.0914 332.415 60.833C332.363 61.5669 333.07 62.1013 334.148 62.1781C335.218 62.2543 336.01 61.8266 336.062 61.0927C336.115 60.3511 335.391 59.8309 334.321 59.7546ZM333.105 64.1016L334.924 64.2311L335.033 62.7021C334.749 62.7549 334.437 62.7672 334.108 62.7438C333.787 62.721 333.483 62.6648 333.213 62.5802L333.105 64.1016Z" fill="#8C8C8C"/>
<path d="M276.934 69.318L276.721 72.2996L273.518 72.0715L273.73 69.0899L276.934 69.318ZM274.4 69.7216L274.271 71.5334L276.052 71.6603L276.181 69.8484L274.4 69.7216ZM278.879 68.9801L278.762 70.6161L279.756 70.6869L279.714 71.2756L278.72 71.2048L278.598 72.9173L277.872 72.8656L278.152 68.9284L278.879 68.9801ZM278.576 73.2307L278.397 75.7459L274.024 75.4345L274.203 72.9193L278.576 73.2307ZM274.873 73.551L274.777 74.8965L277.72 75.1061L277.816 73.7606L274.873 73.551ZM283.359 70.2749C283.279 71.3911 284.397 72.531 285.695 72.8617L285.315 73.4417C284.239 73.1268 283.281 72.3363 282.906 71.3415C282.387 72.265 281.331 72.912 280.216 73.0786L279.938 72.4518C281.255 72.2997 282.515 71.3367 282.594 70.2205L282.631 69.7006L283.396 69.7551L283.359 70.2749ZM285.838 74.8466L285.795 75.4505L279.526 75.0041L279.569 74.4002L285.838 74.8466ZM292.113 69.9225L291.624 76.7876L290.905 76.7365L291.172 72.9981L289.811 72.9012L289.853 72.3049L291.214 72.4018L291.394 69.8713L292.113 69.9225ZM289.875 70.3778L289.833 70.9665L287.364 70.7907L287.269 72.1209L289.448 72.276L289.407 72.857L287.228 72.7019L287.119 74.2309C288.266 74.3087 289.063 74.3386 289.984 74.2428L290.019 74.8369C289.013 74.9267 288.147 74.9034 286.877 74.8207L286.342 74.7826L286.672 70.1497L289.875 70.3778ZM298.527 70.3792L298.039 77.2291L297.313 77.1774L297.801 70.3275L298.527 70.3792ZM295.274 72.3605C295.196 73.4537 295.843 74.6216 296.874 75.1483L296.436 75.6781C295.673 75.278 295.093 74.5221 294.838 73.6356C294.463 74.5272 293.79 75.2437 292.965 75.5462L292.6 74.9592C293.696 74.5609 294.482 73.4566 294.563 72.3099L294.595 71.8588L293.036 71.7478L293.077 71.1667L294.629 71.2772L294.703 70.2452L295.421 70.2963L295.348 71.3284L296.884 71.4378L296.843 72.0188L295.306 71.9094L295.274 72.3605Z" fill="#8C8C8C"/>
<path d="M304.957 71.5056L304.563 77.0406L303.714 76.9801L304.048 72.2861L304.018 72.2839L302.633 73.0536L302.691 72.2509L304.131 71.4468L304.957 71.5056ZM311.243 71.2771L311.102 73.2648L312.103 73.3361L312.06 73.94L311.059 73.8687L310.89 76.2386L310.164 76.1869L310.517 71.2253L311.243 71.2771ZM309.183 71.722L309.141 72.3107L306.802 72.1441L306.66 74.1394C307.993 74.2383 308.749 74.2498 309.618 74.135L309.66 74.7296C308.722 74.8472 307.909 74.8354 306.441 74.7309L305.898 74.6922L306.125 71.5043L309.183 71.722ZM311.098 77.4214L311.056 78.01L306.423 77.6801L306.584 75.4172L307.31 75.469L307.191 77.1432L311.098 77.4214ZM318.326 75.0854L318.284 75.6664L315.517 75.4693L315.464 76.2033L317.467 76.3459L317.313 78.5171L312.581 78.1801L312.735 76.0089L314.746 76.1521L314.798 75.4182L312.038 75.2217L312.08 74.6406L318.326 75.0854ZM317.955 71.9778L317.913 72.5665L316.919 72.4957L316.826 73.803L317.79 73.8716L317.748 74.4603L312.725 74.1026L312.767 73.514L313.738 73.5831L313.831 72.2758L312.829 72.2045L312.871 71.6158L317.955 71.9778ZM313.413 76.6335L313.341 77.6426L316.651 77.8783L316.723 76.8692L313.413 76.6335ZM314.456 73.6343L316.1 73.7513L316.193 72.444L314.55 72.327L314.456 73.6343ZM320.486 76.0537C320.596 74.6169 321.086 73.4455 321.878 72.4723L322.627 72.5256C322.046 73.2449 321.431 74.7533 321.334 76.1141C321.237 77.4825 321.632 79.0551 322.105 79.8572L321.356 79.8038C320.71 78.7282 320.39 77.4991 320.486 76.0537ZM322.644 78.3281L322.688 77.7165L324.745 75.919C325.394 75.3274 325.725 74.9975 325.759 74.5159C325.797 73.9731 325.379 73.5899 324.798 73.5485C324.186 73.5049 323.761 73.8665 323.719 74.4552L322.924 74.3986C322.988 73.3889 323.808 72.7711 324.863 72.8462C325.934 72.9225 326.62 73.6475 326.563 74.5501C326.511 75.1688 326.186 75.6374 325.073 76.5878L323.869 77.6469L323.865 77.6928L326.419 77.8746L326.367 78.5932L322.644 78.3281ZM326.827 77.5425L326.875 76.8621L329.591 73.2597L330.63 73.3337L330.364 77.0797L331.12 77.1336L331.07 77.8446L330.313 77.7907L330.236 78.8687L329.441 78.8121L329.518 77.7341L326.827 77.5425ZM327.764 76.8947L329.568 77.0231L329.764 74.2786L329.703 74.2742L327.768 76.8488L327.764 76.8947ZM333.526 79.1798C332.502 79.0992 331.475 78.419 331.621 76.3702C331.758 74.4436 332.67 73.4021 334 73.4968C335.017 73.5692 335.682 74.2544 335.75 75.1428L334.916 75.0834C334.842 74.6248 334.506 74.2705 333.948 74.2307C333.091 74.1697 332.541 74.8836 332.452 76.1297L332.513 76.1341C332.845 75.6889 333.385 75.4431 333.989 75.4861C334.975 75.5563 335.716 76.3698 335.641 77.4324C335.564 78.5027 334.718 79.2723 333.526 79.1798ZM333.568 78.4759C334.241 78.5238 334.775 78.0393 334.821 77.3895C334.867 76.755 334.421 76.2084 333.756 76.1611C333.076 76.1126 332.526 76.6113 332.474 77.23C332.438 77.8422 332.888 78.4274 333.568 78.4759ZM337.726 81.054C336.679 80.9794 336.024 80.4641 336.003 79.6865L336.836 79.7459C336.885 80.1412 337.238 80.3585 337.781 80.3971C338.431 80.4434 338.863 80.1976 338.909 79.5477L338.968 78.7297L338.914 78.7259C338.75 78.9831 338.421 79.39 337.657 79.3356C336.678 79.2659 335.974 78.4781 336.068 77.1555C336.162 75.8329 336.958 75.1212 337.959 75.1926C338.732 75.2475 338.981 75.734 339.116 76.0048L339.169 76.0086L339.217 75.3359L340.012 75.3925L339.71 79.6355C339.634 80.6981 338.797 81.1302 337.726 81.054ZM337.888 78.6759C338.584 78.7254 339.01 78.241 339.071 77.3847C339.131 76.5438 338.789 75.9509 338.086 75.9008C337.359 75.8491 336.957 76.4351 336.9 77.2301C336.842 78.0405 337.177 78.6253 337.888 78.6759ZM342.184 77.5987C342.073 79.043 341.582 80.2144 340.791 81.1877L340.042 81.1344C340.624 80.4074 341.237 78.9067 341.335 77.5383C341.432 76.1774 341.037 74.5972 340.564 73.8028L341.313 73.8562C341.958 74.9318 342.278 76.1609 342.184 77.5987Z" fill="#434343"/>
<path d="M366.228 81.1004L366.301 80.0782L369.717 75.53L371.309 75.6434L370.972 80.3811L371.906 80.4476L371.831 81.4993L370.897 81.4329L370.803 82.7598L369.584 82.673L369.678 81.3461L366.228 81.1004ZM367.61 80.1418L369.773 80.2957L370.007 77.0128L369.928 77.0072L367.614 80.0926L367.61 80.1418ZM374.934 83.1528C373.352 83.0401 372.291 82.115 372.374 80.9551C372.438 80.0509 373.159 79.3613 374.024 79.2845L374.027 79.2452C373.291 79.0348 372.826 78.3496 372.882 77.5731C372.96 76.4722 374.049 75.7397 375.455 75.8398C376.851 75.9392 377.825 76.8187 377.747 77.9196C377.692 78.6961 377.125 79.3077 376.376 79.4125L376.373 79.4518C377.219 79.6503 377.844 80.4358 377.78 81.3401C377.697 82.4999 376.507 83.2648 374.934 83.1528ZM375.006 82.1404C375.842 82.1999 376.424 81.7869 376.471 81.1284C376.519 80.46 375.964 79.9265 375.168 79.8698C374.362 79.8124 373.737 80.2619 373.699 80.931C373.643 81.5888 374.161 82.0802 375.006 82.1404ZM375.236 78.9164C375.924 78.9654 376.446 78.5679 376.49 77.9486C376.533 77.3491 376.081 76.8921 375.384 76.8424C374.676 76.792 374.165 77.1705 374.121 77.78C374.077 78.3992 374.538 78.8667 375.236 78.9164ZM380.921 83.5791C379.21 83.4573 378.283 82.0575 378.448 79.728C378.614 77.4083 379.731 76.1443 381.441 76.2661C383.142 76.3872 384.079 77.7974 383.914 80.1171C383.748 82.4467 382.631 83.7008 380.921 83.5791ZM380.997 82.5077C381.891 82.5714 382.504 81.7357 382.626 80.0255C382.747 78.325 382.25 77.3906 381.366 77.3276C380.481 77.2647 379.857 78.1192 379.736 79.8197C379.614 81.53 380.102 82.444 380.997 82.5077ZM386.325 83.8651L386.831 76.7487L388.09 76.8383L387.81 80.7601L387.899 80.7664L389.968 78.7601L391.433 78.8644L389.205 81.0175L391.18 84.2108L389.686 84.1044L388.208 81.6973L387.711 82.1559L387.583 83.9546L386.325 83.8651ZM393.503 84.4848C391.91 84.3715 391.028 83.1627 391.143 81.5507C391.259 79.919 392.332 78.8593 393.895 78.9706C395.193 79.063 396.043 79.8843 396.05 81.0406L394.85 80.9552C394.789 80.4371 394.443 80.0173 393.834 79.9739C393.057 79.9186 392.489 80.5401 392.413 81.6115C392.335 82.7123 392.799 83.4073 393.585 83.4633C394.145 83.5032 394.581 83.2082 394.731 82.636L395.93 82.7214C395.751 83.8447 394.839 84.58 393.503 84.4848ZM396.203 83.0569C396.288 81.8578 397.306 81.5746 398.303 81.5863C398.673 81.588 399.443 81.5984 399.675 81.605L399.705 81.1823C399.743 80.6515 399.421 80.3223 398.801 80.2782C398.241 80.2383 397.879 80.4694 397.753 80.8458L396.544 80.7597C396.697 79.8617 397.562 79.2317 398.899 79.3269C399.911 79.399 401.051 79.8951 400.95 81.3204L400.696 84.8884L399.497 84.803L399.549 84.0658L399.51 84.063C399.242 84.4983 398.712 84.8558 397.877 84.7963C396.855 84.7235 396.128 84.1087 396.203 83.0569ZM397.413 83.1332C397.38 83.5952 397.736 83.8577 398.267 83.8955C399.024 83.9494 399.551 83.4831 399.594 82.8835L399.625 82.4412L398.44 82.4358C397.837 82.4423 397.446 82.6614 397.413 83.1332ZM403.238 77.9169L402.731 85.0333L401.473 84.9437L401.979 77.8273L403.238 77.9169Z" fill="#1F1F1F"/>
<path d="M272.126 84.2396C272.214 83.0043 273.287 82.0742 274.522 82.1622L294.713 83.5999C295.948 83.6879 296.878 84.7606 296.791 85.9959L296.311 92.7365C296.223 93.9718 295.15 94.9019 293.915 94.8139L273.723 93.3762C272.488 93.2882 271.558 92.2155 271.646 90.9802L272.126 84.2396Z" fill="#F5F5F5"/>
<path d="M280.964 85.4213L280.546 91.2926L279.95 91.2502L280.167 88.2031L279.44 88.1513L279.243 90.9166L278.659 90.8751L279.046 85.4428L279.63 85.4843L279.476 87.6468L280.203 87.6985L280.368 85.3788L280.964 85.4213ZM278.421 85.991C278.304 87.537 277.695 88.8833 275.95 89.714L275.62 89.2558C276.977 88.6115 277.598 87.6514 277.782 86.4592L276.078 86.3379L276.115 85.8268L278.421 85.991ZM286.606 85.8296L286.302 90.0955L285.68 90.0512L285.983 85.7853L286.606 85.8296ZM286.41 91.0779L286.374 91.5825L282.357 91.2965L282.493 89.3896L283.122 89.4344L283.022 90.8367L286.41 91.0779ZM283.393 85.996C284.278 86.059 284.91 86.7099 284.849 87.5618C284.788 88.4268 284.07 88.975 283.186 88.912C282.301 88.849 281.662 88.2042 281.724 87.3392C281.784 86.4873 282.509 85.933 283.393 85.996ZM283.355 86.5399C282.804 86.5007 282.371 86.8453 282.333 87.3826C282.294 87.933 282.674 88.3289 283.224 88.3681C283.762 88.4064 284.201 88.0688 284.24 87.5184C284.278 86.9811 283.892 86.5781 283.355 86.5399ZM292.687 89.1341L292.651 89.6387L287.297 89.2575L287.333 88.7529L288.617 88.8443L288.674 88.0515C288.235 87.8358 288 87.5227 288.028 87.1361C288.077 86.4415 288.912 86.0926 290.203 86.1845C291.487 86.276 292.271 86.7401 292.221 87.4347C292.194 87.8213 291.914 88.101 291.446 88.2488L291.389 89.0417L292.687 89.1341ZM289.942 89.8476C291.207 89.9376 291.94 90.3652 291.893 91.0336C291.844 91.7151 291.058 92.028 289.793 91.9379C288.515 91.8469 287.781 91.4258 287.83 90.7443C287.878 90.076 288.664 89.7566 289.942 89.8476ZM289.908 90.3259C289.01 90.262 288.485 90.4287 288.459 90.7891C288.433 91.1561 288.929 91.4022 289.827 91.4596C290.712 91.5291 291.244 91.3563 291.27 90.9893C291.296 90.6289 290.793 90.3889 289.908 90.3259ZM290.169 86.6629C289.258 86.598 288.691 86.7882 288.67 87.1818C288.635 87.5745 289.17 87.8365 290.081 87.9014C290.992 87.9662 291.551 87.7822 291.579 87.389C291.607 86.9958 291.08 86.7277 290.169 86.6629ZM289.246 88.8891L290.773 88.9979L290.818 88.3688C290.586 88.3918 290.326 88.393 290.047 88.3732C289.772 88.3536 289.518 88.3157 289.291 88.2666L289.246 88.8891Z" fill="#8C8C8C"/>
<path d="M301.404 84.3573L329.575 86.3632C330.656 86.4402 331.47 87.3788 331.394 88.4596L330.914 95.2003C330.837 96.2812 329.897 97.0948 328.816 97.0179L300.645 95.0119C299.565 94.9349 298.751 93.9965 298.828 92.9156L299.308 86.1749C299.385 85.0942 300.323 84.2804 301.404 84.3573Z" fill="#FF8519" fill-opacity="0.1"/>
<path d="M301.404 84.3573L329.575 86.3632C330.656 86.4402 331.47 87.3788 331.394 88.4596L330.914 95.2003C330.837 96.2812 329.897 97.0948 328.816 97.0179L300.645 95.0119C299.565 94.9349 298.751 93.9965 298.828 92.9156L299.308 86.1749C299.385 85.0942 300.323 84.2804 301.404 84.3573Z" stroke="#FF9D46" stroke-width="0.560591"/>
<path d="M303.222 92.3474L302.455 92.2928L304.497 87.6698L305.329 87.7291L306.701 92.5951L305.935 92.5405L305.591 91.2582L303.743 91.1266L303.222 92.3474ZM303.996 90.5386L305.424 90.6404L304.867 88.5656L304.835 88.5633L303.996 90.5386ZM308.363 87.9451L308.025 92.6894L307.304 92.6381L307.642 87.8938L308.363 87.9451ZM315.838 91.4609L315.801 91.972L313.429 91.8031L313.299 93.6313L312.683 93.5875L312.813 91.7592L310.448 91.5908L310.484 91.0797L315.838 91.4609ZM315.528 88.5937L315.492 89.0982L313.638 88.9662C313.628 89.6175 314.467 90.3128 315.575 90.5333L315.316 91.0154C314.382 90.8172 313.611 90.3177 313.277 89.6913C312.85 90.2701 312.01 90.6483 311.057 90.7121L310.863 90.1978C311.99 90.1365 312.926 89.5807 313.015 88.9219L311.154 88.7893L311.19 88.2848L313.051 88.4173L313.102 87.7096L313.718 87.7534L313.667 88.4612L315.528 88.5937ZM321.43 88.3026L321.182 91.7953L320.559 91.751L320.665 90.2635L319.571 90.1856L319.607 89.6744L320.701 89.7524L320.808 88.2583L321.43 88.3026ZM319.204 91.8191C320.436 91.9069 321.161 92.3668 321.111 93.0679C321.061 93.7691 320.279 94.1152 319.046 94.034C317.815 93.9397 317.083 93.4859 317.14 92.7852C317.183 92.0836 317.972 91.7314 319.204 91.8191ZM319.17 92.304C318.311 92.2429 317.784 92.4293 317.756 92.829C317.728 93.2222 318.222 93.488 319.081 93.5425C319.939 93.6102 320.467 93.4173 320.495 93.0241C320.523 92.6244 320.028 92.3652 319.17 92.304ZM318.565 89.1392C318.512 89.8862 318.991 90.6448 319.855 91.0093L319.498 91.4779C318.856 91.2016 318.405 90.6986 318.194 90.1007C317.888 90.7408 317.336 91.2317 316.617 91.4373L316.324 90.916C317.258 90.6663 317.871 89.9131 317.929 89.1005L317.938 88.9694L316.667 88.8789L316.703 88.3744L319.868 88.5997L319.832 89.1043L318.574 89.0147L318.565 89.1392ZM327.197 88.7132L326.779 94.5846L326.156 94.5403L326.574 88.6689L327.197 88.7132ZM324.409 90.4115C324.342 91.3485 324.896 92.3496 325.78 92.8011L325.405 93.2552C324.751 92.9122 324.254 92.2643 324.034 91.5045C323.713 92.2686 323.136 92.8829 322.429 93.1421L322.116 92.639C323.056 92.2976 323.729 91.351 323.799 90.3681L323.827 89.9815L322.49 89.8863L322.525 89.3883L323.856 89.483L323.919 88.5984L324.535 88.6422L324.472 89.5269L325.789 89.6206L325.753 90.1187L324.436 90.0249L324.409 90.4115Z" fill="#FF8000"/>
<path d="M270.613 105.519C270.745 103.666 272.354 102.271 274.207 102.403L398.344 111.242C400.196 111.374 401.592 112.983 401.46 114.836L400.504 128.256C400.372 130.109 398.763 131.504 396.91 131.372L272.773 122.533C270.92 122.401 269.525 120.792 269.657 118.939L270.613 105.519Z" fill="#FF8E00"/>
<path d="M319.501 113.01C319.426 113.957 320.014 114.868 321.044 115.294L320.636 115.842C319.865 115.506 319.308 114.906 319.049 114.169C318.689 114.915 318.045 115.48 317.211 115.713L316.884 115.121C317.981 114.815 318.689 113.936 318.759 112.957L318.806 112.3L319.548 112.352L319.501 113.01ZM322.443 116.692L322.271 119.101L321.545 119.049L321.674 117.229L317.76 116.951L317.802 116.362L322.443 116.692ZM322.759 112.251L322.466 116.364L321.74 116.312L322.033 112.199L322.759 112.251ZM325.785 114.218C325.691 115.433 326.306 116.722 327.295 117.292L326.802 117.84C326.084 117.401 325.562 116.592 325.329 115.653C324.95 116.61 324.291 117.385 323.483 117.735L323.074 117.114C324.165 116.684 324.969 115.42 325.059 114.166L325.142 112.997L325.868 113.048L325.785 114.218ZM328.868 112.686L328.673 115.415L329.774 115.493L329.73 116.113L328.629 116.034L328.38 119.536L327.654 119.484L328.141 112.634L328.868 112.686ZM337.278 113.285L336.79 120.134L336.056 120.082L336.544 113.232L337.278 113.285ZM335.184 113.873C335.042 115.876 334.061 117.558 331.634 118.515L331.294 117.899C333.179 117.161 334.154 115.99 334.409 114.402L331.886 114.222L331.927 113.641L335.184 113.873ZM344.03 117.523L343.988 118.111L337.719 117.665L337.761 117.076L340.536 117.274L340.582 116.624L338.61 116.484L338.734 114.741L342.687 115.022L342.73 114.41L338.762 114.128L338.803 113.555L343.497 113.889L343.375 115.609L339.415 115.327L339.369 115.969L343.467 116.261L343.426 116.827L341.301 116.675L341.255 117.325L344.03 117.523ZM343.204 118.54L343.063 120.527L342.329 120.475L342.429 119.068L338.347 118.778L338.388 118.197L343.204 118.54Z" fill="white"/>
<path d="M349.524 117.882L355.115 118.28M352.519 115.285L352.12 120.877" stroke="white" stroke-width="0.840887" stroke-linecap="round" stroke-linejoin="round"/>
<path d="M272.593 125.049L396.73 133.888C398.428 134.009 399.708 135.484 399.587 137.183L398.631 150.603C398.51 152.301 397.034 153.581 395.336 153.46L271.199 144.621C269.501 144.5 268.222 143.024 268.343 141.326L269.298 127.905C269.42 126.207 270.894 124.928 272.593 125.049Z" stroke="#FF8E00" stroke-width="0.560591"/>
<path d="M314.234 136.153C314.157 137.238 314.782 138.497 315.787 139.06L315.334 139.597C314.592 139.171 314.039 138.356 313.797 137.436C313.41 138.395 312.708 139.194 311.896 139.529L311.509 138.925C312.584 138.502 313.433 137.264 313.516 136.102L313.567 135.375L312.023 135.265L312.066 134.661L315.82 134.929L315.777 135.533L314.286 135.427L314.234 136.153ZM317.329 134.345L317.136 137.059L318.237 137.137L318.193 137.749L317.092 137.67L316.841 141.195L316.115 141.143L316.603 134.293L317.329 134.345ZM320.399 136.446C320.321 137.539 320.697 138.741 321.574 139.365L321.129 139.894C320.515 139.462 320.128 138.747 319.955 137.936C319.637 138.789 319.114 139.497 318.42 139.855L318.007 139.28C319.02 138.768 319.61 137.596 319.694 136.426L319.785 135.15L320.488 135.2L320.399 136.446ZM324.34 134.844L323.852 141.694L323.156 141.644L323.644 134.794L324.34 134.844ZM322.908 134.873L322.454 141.256L321.766 141.207L322.015 137.706L320.953 137.63L320.996 137.026L322.058 137.102L322.22 134.824L322.908 134.873ZM330.571 135.288L330.083 142.137L329.357 142.086L329.844 135.236L330.571 135.288ZM329.102 136.274L329.06 136.863L324.932 136.569L324.974 135.98L326.663 136.1L326.736 135.084L327.47 135.136L327.397 136.153L329.102 136.274ZM326.968 137.213C327.97 137.285 328.649 137.994 328.583 138.926C328.516 139.867 327.743 140.465 326.741 140.401C325.748 140.323 325.068 139.621 325.135 138.681C325.201 137.748 325.974 137.142 326.968 137.213ZM326.926 137.81C326.329 137.767 325.865 138.141 325.823 138.73C325.78 139.326 326.188 139.755 326.785 139.79C327.38 139.84 327.845 139.473 327.887 138.877C327.929 138.288 327.522 137.852 326.926 137.81ZM338.833 141.301L338.79 141.905L332.522 141.458L332.565 140.854L335.324 141.051L335.425 139.644L333.383 139.499L333.634 135.974L334.361 136.026L334.277 137.203L337.64 137.443L337.724 136.266L338.443 136.317L338.192 139.841L336.143 139.695L336.043 141.102L338.833 141.301ZM334.152 138.962L337.515 139.201L337.599 138.032L334.235 137.792L334.152 138.962ZM345.097 136.322L344.609 143.172L343.875 143.12L344.363 136.27L345.097 136.322ZM343.004 136.91C342.861 138.913 341.881 140.596 339.454 141.552L339.113 140.936C340.998 140.198 341.973 139.027 342.228 137.439L339.705 137.26L339.747 136.679L343.004 136.91Z" fill="#FF8000"/>
<path d="M353.258 138.379L355.335 140.775L352.939 142.853" stroke="#FF8000" stroke-width="0.840887" stroke-linecap="round" stroke-linejoin="round"/>
</g>
<g filter="url(#filter2_d_891_5820)">
<path d="M-21.7721 24.7657C-21.6304 21.3524 -18.7486 18.7003 -15.3354 18.8419L97.8404 23.5382C101.254 23.6798 103.906 26.5616 103.764 29.9749L98.7954 149.717C98.6538 153.13 95.772 155.783 92.3587 155.641L-20.817 150.945C-24.2303 150.803 -26.8824 147.921 -26.7408 144.508L-21.7721 24.7657Z" fill="white" shape-rendering="crispEdges"/>
<path d="M-15.3514 19.2283L97.8246 23.9246C101.024 24.0575 103.511 26.759 103.378 29.9588L98.4093 149.701C98.2763 152.901 95.5747 155.388 92.375 155.255L-20.801 150.559C-24.0008 150.426 -26.487 147.724 -26.3544 144.524L-21.3857 24.7817C-21.2529 21.5818 -18.5513 19.0955 -15.3514 19.2283Z" stroke="#F0F0F0" stroke-width="0.773196" shape-rendering="crispEdges"/>
<path d="M-8.28769 44.5273L-9.96553 44.4577L-6.52484 35.8462L-4.59351 35.9263L-1.86603 44.7938L-3.54387 44.7242L-4.17846 42.5334L-7.47378 42.3967L-8.28769 44.5273ZM-6.99871 41.1468L-4.54834 41.2485L-5.59709 37.6742L-5.66952 37.6712L-6.99871 41.1468ZM0.609484 36.1422L0.246846 44.8815L-1.32236 44.8164L-0.959719 36.0771L0.609484 36.1422ZM12.6143 36.5074L12.5733 37.4972C12.5061 38.8244 12.4671 40.3464 11.8765 42.6313L10.5663 42.444C10.7898 41.5766 10.9367 40.8028 11.0382 40.1057L4.58945 40.2009L4.4439 39.0461L11.1532 39.0827C11.2009 38.5164 11.228 38.0096 11.2535 37.5391L4.85601 37.2737L4.90109 36.1873L12.6143 36.5074ZM13.3776 44.0479L13.3315 45.1584L3.38517 44.7457L3.43125 43.6352L7.10077 43.7874L7.21247 41.0956L8.54025 41.1507L8.42856 43.8425L13.3776 44.0479ZM23.0358 35.9725L22.583 46.8845L21.2431 46.8289L21.6959 35.9169L23.0358 35.9725ZM18.0154 39.2344C17.9463 40.9002 18.8866 42.7167 20.6184 43.5261L19.8395 44.5216C18.6059 43.9444 17.7158 42.8132 17.2694 41.4767C16.7227 42.8506 15.7328 43.9763 14.4363 44.4788L13.7552 43.4106C15.5254 42.7102 16.6034 40.917 16.6756 39.1788L16.6991 38.6115L14.297 38.5118L14.3416 37.4375L16.7437 37.5372L16.8098 35.9439L18.1376 35.999L18.0715 37.5923L20.4253 37.69L20.3807 38.7643L18.039 38.6671L18.0154 39.2344Z" fill="#1F1F1F"/>
<path d="M-7.07875 60.5674C-7.14366 61.8767 -6.29542 63.1074 -4.85803 63.6538L-5.39787 64.4249C-6.47504 63.994 -7.26688 63.1888 -7.65366 62.1835C-8.12018 63.2274 -8.98414 64.0327 -10.1256 64.3874L-10.6002 63.5848C-9.09959 63.118 -8.15936 61.8768 -8.10326 60.5249L-8.06557 59.6166L-7.04106 59.6591L-7.07875 60.5674ZM-2.87252 65.5242L-3.01057 68.8512L-4.01396 68.8096L-3.90965 66.2958L-9.31737 66.0714L-9.28362 65.2582L-2.87252 65.5242ZM-2.61788 59.3877L-2.85367 65.07L-3.85706 65.0284L-3.62127 59.3461L-2.61788 59.3877ZM6.15573 59.7412L6.04178 62.4873L7.42539 62.5447L7.39077 63.3791L6.00715 63.3217L5.87129 66.5959L4.8679 66.5543L5.15234 59.6995L6.15573 59.7412ZM3.33363 60.4388L3.29988 61.252L0.0679256 61.1179L-0.046463 63.8746C1.79638 63.9563 2.83914 63.9414 4.03216 63.7476L4.11459 64.5657C2.82608 64.7661 1.70388 64.783 -0.324011 64.6989L-1.07391 64.6678L-0.89115 60.2634L3.33363 60.4388ZM6.20603 68.218L6.17228 69.0312L-0.228259 68.7656L-0.0985304 65.6393L0.904854 65.6809L0.808873 67.994L6.20603 68.218ZM18.0027 61.1533L17.9642 62.0827C17.9155 63.2551 17.8612 64.5648 17.4219 66.4827L16.4123 66.335C16.8578 64.5231 16.9135 63.1818 16.9608 62.0411L16.9656 61.9249L11.2199 61.6865L11.2537 60.8732L18.0027 61.1533ZM18.7071 67.6364L18.6725 68.4708L10.0434 68.1127L10.078 67.2783L13.3628 67.4146L13.5012 64.077L14.4941 64.1182L14.3556 67.4558L18.7071 67.6364ZM24.5306 61.3183L24.3461 65.7649L19.8467 65.5782L20.0312 61.1316L24.5306 61.3183ZM20.9797 61.9857L20.8623 64.8163L23.3866 64.921L23.504 62.0904L20.9797 61.9857ZM27.4152 60.6445L27.1338 67.4253L26.1304 67.3836L26.4118 60.6029L27.4152 60.6445ZM27.3541 69.0003L27.32 69.8241L20.8455 69.5555L20.9717 66.5136L21.9856 66.5557L21.8936 68.7737L27.3541 69.0003ZM30.1285 68.597L29.1626 71.477L28.2648 71.4398L28.9455 68.5479L30.1285 68.597ZM-2.7038 80.8361L-2.73755 81.6494L-6.60322 81.489L-6.73645 84.6998L-7.71871 84.659L-7.58548 81.4482L-11.3983 81.29L-11.3646 80.4767L-2.7038 80.8361ZM-3.58745 75.8691L-3.74172 79.5869L-10.2268 79.3178L-10.0725 75.6L-3.58745 75.8691ZM-9.12353 76.4435L-9.21206 78.577L-4.71267 78.7637L-4.62414 76.6302L-9.12353 76.4435ZM5.9461 75.7568L5.67832 82.2102L4.67493 82.1685L4.80334 79.0739L2.955 78.9972C2.70259 80.1082 1.7099 80.8288 0.458745 80.7663C-0.967556 80.7177 -1.98387 79.7127 -1.92777 78.3608C-1.87123 76.9983 -0.77647 76.1127 0.649393 76.1719C1.91683 76.2244 2.86225 77.0254 2.99931 78.1844L4.83709 78.2606L4.94271 75.7152L5.9461 75.7568ZM0.614331 77.0168C-0.272872 76.98 -0.93157 77.5557 -0.966632 78.4007C-1.00257 79.2668 -0.393397 79.8845 0.494245 79.9108C1.34932 79.9568 2.01815 79.3921 2.05408 78.526C2.08915 77.6811 1.46985 77.0523 0.614331 77.0168ZM3.10554 81.7437C3.05514 82.9583 4.36412 84.0495 6.15882 84.399L5.72459 85.1745C4.26128 84.8705 3.05599 84.0851 2.5341 83.0213C1.91574 84.0272 0.649095 84.7206 -0.844938 84.9019L-1.17117 84.0949C0.593942 83.8825 2.02182 82.8731 2.08103 81.7012L2.09506 81.3632L3.11957 81.4057L3.10554 81.7437ZM15.0784 76.1358L14.6848 85.6204L13.6814 85.5788L14.075 76.0941L15.0784 76.1358ZM9.98984 76.6335C11.3946 76.6918 12.3762 78.0233 12.292 80.0512C12.2074 82.0896 11.1189 83.3353 9.71417 83.277C8.28831 83.2178 7.31727 81.8867 7.40186 79.8483C7.486 77.8204 8.56398 76.5743 9.98984 76.6335ZM9.95259 77.5313C9.07595 77.4949 8.43535 78.3994 8.37355 79.8886C8.31132 81.3884 8.87478 82.3428 9.75142 82.3792C10.6175 82.4151 11.2581 81.5107 11.3203 80.0109C11.3821 78.5216 10.8187 77.5672 9.95259 77.5313ZM24.8694 81.2925L24.8361 82.0952L16.1964 81.7367L16.2297 80.934L24.8694 81.2925ZM23.9713 79.4778L23.9371 80.3016L17.3465 80.0282L17.4876 76.6272L23.9832 76.8968L23.9499 77.6995L18.4577 77.4716L18.3841 79.246L23.9713 79.4778ZM23.8077 84.9515L23.7735 85.7754L17.13 85.4997L17.2457 82.7113L18.2385 82.7525L18.157 84.7171L23.8077 84.9515ZM36.5564 80.9522L36.523 81.755L32.6996 81.5963L32.6654 82.4201L35.401 82.5336L35.3089 84.7517L29.7956 84.5229L29.761 85.3573L35.5384 85.597L35.5064 86.368L28.7467 86.0875L28.8436 83.7533L34.3464 83.9817L34.3762 83.2635L28.8628 83.0347L28.8948 82.2637L31.6621 82.3785L31.6962 81.5547L27.8939 81.3969L27.9272 80.5942L36.5564 80.9522ZM35.5972 77.294L35.4763 80.2091L29.0652 79.9431L29.1861 77.028L35.5972 77.294ZM30.1355 77.8609L30.0803 79.1917L34.5058 79.3754L34.561 78.0446L30.1355 77.8609ZM39.8121 77.871C41.0954 77.9242 41.9903 79.0511 42.0707 80.8108L44.0246 80.8918L44.1719 77.343L45.1647 77.3842L44.7711 86.8688L43.7783 86.8277L43.9909 81.7051L42.0475 81.6245C41.8601 83.4629 40.8514 84.569 39.5365 84.5144C38.1212 84.4557 37.1818 83.126 37.2769 81.0879C37.3505 79.0596 38.3968 77.8123 39.8121 77.871ZM39.7749 78.7687C38.9194 78.7332 38.2893 79.6382 38.2275 81.1274C38.1653 82.6272 38.7182 83.5812 39.5737 83.6167C40.4292 83.6522 41.0593 82.7473 41.1215 81.2475C41.1833 79.7582 40.6304 78.8042 39.7749 78.7687ZM54.8114 85.2541L54.7768 86.0885L46.116 85.7291L46.1506 84.8947L49.9635 85.0529L50.0441 83.1095L47.2241 82.9925L47.4261 78.1234L48.4295 78.1651L48.362 79.7916L53.0093 79.9845L53.0768 78.3579L54.0696 78.3991L53.8675 83.2682L51.0369 83.1507L50.9563 85.0941L54.8114 85.2541ZM48.2612 82.2209L52.9085 82.4137L52.9755 80.7977L48.3283 80.6049L48.2612 82.2209ZM58.4211 80.5264C58.3585 82.0368 58.9251 83.6791 60.1606 84.5027L59.5688 85.2505C58.7037 84.6803 58.1409 83.71 57.8696 82.5984C57.4659 83.7878 56.7738 84.7853 55.8317 85.307L55.2396 84.5312C56.6143 83.7842 57.3806 82.1443 57.4477 80.5284L57.5209 78.7645L58.4926 78.8048L58.4211 80.5264ZM63.7884 78.157L63.3957 87.6205L62.4345 87.5806L62.8272 78.1171L63.7884 78.157ZM61.8164 78.2551L61.4504 87.0743L60.4999 87.0348L60.7006 82.1975L59.2325 82.1365L59.2671 81.3021L60.7352 81.3631L60.8658 78.2156L61.8164 78.2551ZM73.182 86.0058L73.1474 86.8402L64.4866 86.4808L64.5212 85.6464L66.5914 85.7323L66.6939 83.2608C65.9354 82.8009 65.4936 82.1001 65.5287 81.2551C65.5905 79.7659 67.0888 78.8441 69.1167 78.9283C71.1551 79.0129 72.5719 80.0556 72.5101 81.5448C72.4755 82.3792 71.9935 83.0311 71.2153 83.4273L71.1119 85.9199L73.182 86.0058ZM69.0834 79.731C67.5941 79.6692 66.5429 80.271 66.5004 81.2955C66.4583 82.3094 67.4552 83.0173 68.9444 83.0791C70.4231 83.1405 71.4964 82.5185 71.5384 81.5045C71.5809 80.48 70.562 79.7923 69.0834 79.731ZM67.5842 85.7735L70.0979 85.8778L70.1856 83.7654C69.7959 83.8498 69.3662 83.8796 68.912 83.8607C68.4684 83.8423 68.0479 83.7772 67.6714 83.6717L67.5842 85.7735Z" fill="#434343"/>
<g clip-path="url(#clip0_891_5820)">
<path d="M65.2516 100.268C54.0518 99.8028 44.6354 107.554 44.2194 117.58C44.0533 121.582 45.3591 125.334 47.6901 128.434C48.5437 129.57 48.8963 131.004 48.5674 132.386L47.2252 138.015C47.0003 138.96 47.9659 139.746 48.8455 139.333L55.7271 136.106C56.699 135.651 57.8008 135.535 58.8373 135.816C60.4007 136.24 62.0427 136.504 63.745 136.575C74.9448 137.04 84.3612 129.289 84.7772 119.263C85.1933 109.237 76.4514 100.732 65.2516 100.268Z" fill="#E2E5E8"/>
<path d="M70.2274 123.252C69.7676 123.068 69.5657 122.633 69.7606 122.242C71.0823 119.548 72.6046 115.995 73.027 115.091C73.3923 114.24 73.832 113.915 74.4222 113.939C75.0123 113.964 75.3183 114.21 75.7457 115.177C76.1736 116.129 77.9576 121.51 78.1619 122.22C78.3799 122.93 78.1678 123.402 77.7372 123.508C77.306 123.628 76.7153 123.617 76.4767 123.071C76.2244 122.524 75.9527 121.784 75.7645 121.35C75.626 121.042 75.5036 121.01 75.0507 120.991C74.5978 120.972 73.1962 120.955 72.9354 120.944C72.6883 120.934 72.4939 120.981 72.271 121.384C72.0474 121.801 71.6764 122.459 71.4414 122.821C71.2202 123.183 70.6872 123.436 70.2274 123.252ZM73.3102 118.87C73.2193 119.073 73.2685 119.212 73.5281 119.25C73.8026 119.262 74.7639 119.288 74.9572 119.268C75.1368 119.248 75.0876 119.109 75.0258 118.941C74.8547 118.426 74.5136 117.037 74.33 116.493C74.2939 116.367 74.2385 116.379 74.1927 116.487C73.9195 117.108 73.6915 117.965 73.3102 118.87Z" fill="#333D4B"/>
<path d="M63.2518 123.58C62.3185 123.542 60.3507 123.254 60.4674 120.44C60.5238 119.081 61.1459 118.667 61.9527 118.11C62.0517 118.045 62.1649 117.967 62.2644 117.889C62.0579 117.564 61.8783 117.254 61.7661 116.974C61.5659 116.499 61.4932 115.932 61.5251 115.163C61.557 114.395 62.7302 112.959 64.432 113.029C65.6947 113.082 66.762 114.198 66.7073 115.516C66.6709 116.394 66.1289 117.197 65.3261 117.658C65.0722 117.813 64.8326 117.954 64.6342 118.097C64.9334 118.508 65.2605 118.907 65.5643 119.208C65.8285 119.467 66.1471 119.741 66.492 120.044C66.7064 119.847 66.9071 119.649 67.0792 119.477C67.4205 119.203 67.9643 119.019 68.2669 119.348C68.5695 119.676 68.6221 120.064 68.191 120.513C68.0475 120.658 67.8886 120.844 67.701 121.057C68.0328 121.345 68.3914 121.649 68.7357 121.966C69.0674 122.254 69.1367 122.903 68.8251 123.124C68.5135 123.345 68.2733 123.5 67.5904 123.059C67.3359 122.897 66.9493 122.606 66.4969 122.244C66.4111 122.323 66.3116 122.401 66.2265 122.466C65.4031 123.092 64.6929 123.64 63.2518 123.58ZM62.1779 120.635C62.154 121.211 62.7037 121.88 63.5134 121.914C64.1722 121.941 64.7663 121.54 65.2209 121.187C64.8228 120.841 64.439 120.481 64.1227 120.152C63.8596 119.866 63.5176 119.494 63.1635 119.081C62.6129 119.429 62.2115 119.825 62.1779 120.635ZM63.3002 115.457C63.2785 115.979 63.3209 116.283 63.6069 116.68C63.6458 116.736 63.6979 116.807 63.7493 116.892C64.0038 116.724 64.2302 116.568 64.4286 116.425C64.8964 116.087 65.0667 115.627 65.0804 115.297C65.0917 115.023 64.8532 114.477 64.3042 114.454C63.7552 114.431 63.3218 114.936 63.3002 115.457Z" fill="#333D4B"/>
<path d="M58.8674 123.344C58.5387 123.647 57.9765 123.61 57.5916 123.277C57.4595 123.148 57.1706 122.82 56.8303 122.407C56.2694 122.673 55.6318 122.797 54.9318 122.768C52.9417 122.686 50.6648 120.9 50.7878 117.936C50.8806 115.698 52.1961 113.155 55.4214 113.288C57.6448 113.381 59.4499 114.94 59.3109 118.289C59.2636 119.428 58.8898 120.485 58.2518 121.284C58.5538 121.626 58.8157 121.94 58.9982 122.181C59.2459 122.507 59.2523 123.016 58.8674 123.344ZM52.8608 118.008C52.7828 119.888 53.9421 120.775 55.0538 120.821C55.2185 120.828 55.3844 120.807 55.5365 120.786C55.3809 120.56 55.2379 120.361 55.1349 120.192C54.774 119.613 54.8494 119.122 55.2159 118.903C55.6676 118.619 56.0577 118.828 56.4912 119.313C56.5833 119.413 56.728 119.571 56.8853 119.756C57.1655 119.3 57.3272 118.716 57.354 118.071C57.4217 116.437 56.7215 115.088 55.2255 115.026C53.7433 114.965 52.9297 116.347 52.8608 118.008Z" fill="#333D4B"/>
</g>
</g>
<defs>
<filter id="filter0_d_891_5820" x="115" y="-0.253174" width="141.023" height="147.315" filterUnits="userSpaceOnUse" color-interpolation-filters="sRGB">
<feFlood flood-opacity="0" result="BackgroundImageFix"/>
<feColorMatrix in="SourceAlpha" type="matrix" values="0 0 0 0 0 0 0 0 0 0 0 0 0 0 0 0 0 0 127 0" result="hardAlpha"/>
<feOffset dx="4" dy="4"/>
<feGaussianBlur stdDeviation="2.5"/>
<feComposite in2="hardAlpha" operator="out"/>
<feColorMatrix type="matrix" values="0 0 0 0 0 0 0 0 0 0 0 0 0 0 0 0 0 0 0.08 0"/>
<feBlend mode="normal" in2="BackgroundImageFix" result="effect1_dropShadow_891_5820"/>
<feBlend mode="normal" in="SourceGraphic" in2="effect1_dropShadow_891_5820" result="shape"/>
</filter>
<filter id="filter1_d_891_5820" x="255.004" y="10.2026" width="173.297" height="162.519" filterUnits="userSpaceOnUse" color-interpolation-filters="sRGB">
<feFlood flood-opacity="0" result="BackgroundImageFix"/>
<feColorMatrix in="SourceAlpha" type="matrix" values="0 0 0 0 0 0 0 0 0 0 0 0 0 0 0 0 0 0 127 0" result="hardAlpha"/>
<feOffset dx="4" dy="4"/>
<feGaussianBlur stdDeviation="2.5"/>
<feComposite in2="hardAlpha" operator="out"/>
<feColorMatrix type="matrix" values="0 0 0 0 0 0 0 0 0 0 0 0 0 0 0 0 0 0 0.08 0"/>
<feBlend mode="normal" in2="BackgroundImageFix" result="effect1_dropShadow_891_5820"/>
<feBlend mode="normal" in="SourceGraphic" in2="effect1_dropShadow_891_5820" result="shape"/>
</filter>
<filter id="filter2_d_891_5820" x="-27.9961" y="17.5854" width="141.016" height="147.312" filterUnits="userSpaceOnUse" color-interpolation-filters="sRGB">
<feFlood flood-opacity="0" result="BackgroundImageFix"/>
<feColorMatrix in="SourceAlpha" type="matrix" values="0 0 0 0 0 0 0 0 0 0 0 0 0 0 0 0 0 0 127 0" result="hardAlpha"/>
<feOffset dx="4" dy="4"/>
<feGaussianBlur stdDeviation="2.5"/>
<feComposite in2="hardAlpha" operator="out"/>
<feColorMatrix type="matrix" values="0 0 0 0 0 0 0 0 0 0 0 0 0 0 0 0 0 0 0.08 0"/>
<feBlend mode="normal" in2="BackgroundImageFix" result="effect1_dropShadow_891_5820"/>
<feBlend mode="normal" in="SourceGraphic" in2="effect1_dropShadow_891_5820" result="shape"/>
</filter>
<clipPath id="clip0_891_5820">
<rect width="46.3917" height="46.3917" fill="white" transform="translate(42.2109 96.0364) rotate(2.37614)"/>
</clipPath>
</defs>
</svg>
