<svg width="130" height="130" viewBox="0 0 130 130" fill="none" xmlns="http://www.w3.org/2000/svg">
<path d="M110.298 0H19.7016C8.82072 0 0 8.82072 0 19.7016V110.298C0 121.179 8.82072 130 19.7016 130H110.298C121.179 130 130 121.179 130 110.298V19.7016C130 8.82072 121.179 0 110.298 0Z" fill="#FF8E00"/>
<path d="M20.1691 35.5594C18.6037 35.5594 17.3352 34.2909 17.3352 32.7255C17.3352 24.2403 24.2385 17.337 32.7237 17.337C34.2891 17.337 35.5576 18.6055 35.5576 20.1709C35.5576 21.7364 34.2891 23.0048 32.7237 23.0048C27.3638 23.0048 23.003 27.3657 23.003 32.7255C23.003 34.2909 21.7345 35.5594 20.1691 35.5594Z" fill="white"/>
<path d="M32.7237 112.663C24.2385 112.663 17.3352 105.76 17.3352 97.2746C17.3352 95.7091 18.6037 94.4407 20.1691 94.4407C21.7345 94.4407 23.003 95.7091 23.003 97.2746C23.003 102.634 27.3638 106.995 32.7237 106.995C34.2891 106.995 35.5576 108.264 35.5576 109.829C35.5576 111.395 34.2891 112.663 32.7237 112.663Z" fill="white"/>
<path d="M97.2743 112.663C95.7089 112.663 94.4404 111.395 94.4404 109.829C94.4404 108.264 95.7089 106.995 97.2743 106.995C102.634 106.995 106.995 102.634 106.995 97.2746C106.995 95.7091 108.263 94.4407 109.829 94.4407C111.394 94.4407 112.663 95.7091 112.663 97.2746C112.663 105.76 105.76 112.663 97.2743 112.663Z" fill="white"/>
<path d="M109.829 35.5595C108.263 35.5595 106.995 34.291 106.995 32.7256C106.995 27.3658 102.634 23.005 97.2743 23.005C95.7089 23.005 94.4404 21.7365 94.4404 20.1711C94.4404 18.6056 95.7089 17.3372 97.2743 17.3372C105.76 17.3372 112.663 24.2404 112.663 32.7256C112.663 34.291 111.394 35.5595 109.829 35.5595Z" fill="white"/>
<path d="M81.0063 40.197C75.7454 40.197 70.9648 42.2482 67.4179 45.5917C66.0633 46.8675 63.9369 46.8675 62.5823 45.5917C59.0353 42.2464 54.2529 40.197 48.9939 40.197C38.0487 40.197 29.1768 49.069 29.1768 60.0141V83.9006C29.1768 87.1616 31.82 89.8049 35.081 89.8049C38.342 89.8049 40.9853 87.1616 40.9853 83.9006V62.5712C40.9853 58.1151 44.4296 54.3445 48.8784 54.1135C53.6847 53.8643 57.6587 57.688 57.6587 62.4393V82.7586C57.6587 82.7586 57.6587 82.7531 57.6587 82.7495C57.6642 86.6355 60.8152 89.7847 64.7031 89.7847C68.591 89.7847 71.7439 86.6355 71.7475 82.7495C71.7475 82.7531 71.7475 82.755 71.7475 82.7586V62.5712C71.7475 58.1151 75.1918 54.3445 79.6407 54.1135C84.4469 53.8643 88.421 57.688 88.421 62.4393V83.6055C88.421 87.0297 91.1962 89.8049 94.6204 89.8049C98.0445 89.8049 100.82 87.0297 100.82 83.6055V60.0141C100.82 49.069 91.9478 40.197 81.0026 40.197H81.0063Z" fill="white"/>
</svg>
