<svg width="32" height="32" viewBox="0 0 32 32" fill="none" xmlns="http://www.w3.org/2000/svg">
<path d="M18.4961 5.33398C18.9771 5.33399 19.4492 5.46352 19.8623 5.70996C20.2754 5.95642 20.6143 6.31009 20.8428 6.7334L21.4902 7.93359C21.7187 8.35685 22.0577 8.71057 22.4707 8.95703C22.8837 9.20343 23.356 9.33392 23.8369 9.33398H26.5C27.2072 9.33398 27.8857 9.61421 28.3857 10.1143C28.8858 10.6143 29.1669 11.2928 29.167 12V24C29.167 24.7072 28.8858 25.3857 28.3857 25.8857C27.8856 26.3858 27.2072 26.667 26.5 26.667H5.16699C4.45979 26.667 3.78134 26.3858 3.28125 25.8857C2.78115 25.3856 2.5 24.7072 2.5 24V12C2.50004 11.2928 2.78119 10.6143 3.28125 10.1143C3.78132 9.61431 4.45986 9.33398 5.16699 9.33398H7.8291C8.3096 9.33401 8.78153 9.20392 9.19434 8.95801C9.60711 8.71208 9.94606 8.35905 10.1748 7.93652L10.8271 6.73047C11.0559 6.30809 11.394 5.95486 11.8066 5.70898C12.2194 5.46304 12.6914 5.33398 13.1719 5.33398H18.4961ZM16 12.334C13.2386 12.334 11 14.5726 11 17.334C11.0003 20.0952 13.2387 22.334 16 22.334C18.7613 22.334 20.9997 20.0952 21 17.334C21 14.5726 18.7614 12.334 16 12.334ZM16 14.334C17.6569 14.334 19 15.6771 19 17.334C18.9997 18.9906 17.6567 20.334 16 20.334C14.3433 20.334 13.0003 18.9906 13 17.334C13 15.6771 14.3431 14.334 16 14.334Z" fill="white"/>
</svg>
