<svg width="24" height="24" viewBox="0 0 24 24" fill="none" xmlns="http://www.w3.org/2000/svg">
<circle cx="12" cy="12" r="10" fill="#FFCA1D"/>
<path d="M10.7998 12.0756L10.7998 8.32575C10.7998 7.70439 11.3371 7.20068 11.9998 7.20068C12.6625 7.20068 13.1998 7.70439 13.1998 8.32575L13.1998 12.0756C13.1998 12.697 12.6625 13.2007 11.9998 13.2007C11.3371 13.2007 10.7998 12.697 10.7998 12.0756Z" fill="white"/>
<path d="M12.0051 14.4009C12.6646 14.4012 13.1998 14.9383 13.1998 15.6009C13.1998 16.2634 12.6646 16.8006 12.0051 16.8009L11.9946 16.8009C11.3347 16.8009 10.7998 16.2636 10.7998 15.6009C10.7998 14.9381 11.3347 14.4009 11.9946 14.4009L12.0051 14.4009Z" fill="white"/>
</svg>
