<svg width="20" height="20" viewBox="0 0 20 20" fill="none" xmlns="http://www.w3.org/2000/svg">
<path d="M16.6789 10.0001C16.6788 6.3116 13.6881 3.32157 9.99957 3.32157C6.31121 3.32172 3.32123 6.3117 3.32108 10.0001C3.32108 13.6886 6.31111 16.6793 9.99957 16.6794C13.6882 16.6794 16.6789 13.6886 16.6789 10.0001ZM18 10.0001C18 14.4183 14.4178 18.0005 9.99957 18.0005C5.5815 18.0003 2 14.4182 2 10.0001C2.00015 5.58209 5.5816 2.00064 9.99957 2.00049C14.4177 2.00049 17.9998 5.58199 18 10.0001Z" fill="#8C8C8C"/>
<path d="M11 9.93805L11 13.0629C11 13.5807 10.5523 14.0005 10 14.0005C9.44771 14.0005 9 13.5807 9 13.0629L9 9.93805C9 9.42025 9.44772 9.00049 10 9.00049C10.5523 9.00049 11 9.42025 11 9.93805Z" fill="#8C8C8C"/>
<path d="M9.99562 8.00049C9.44596 8.00024 9 7.55262 9 7.00049C9 6.44836 9.44596 6.00073 9.99562 6.00049L10.0044 6.00049C10.5542 6.00049 11 6.4482 11 7.00049C11 7.55277 10.5542 8.00049 10.0044 8.00049L9.99562 8.00049Z" fill="#8C8C8C"/>
</svg>
