<svg width="20" height="20" viewBox="0 0 20 20" fill="none" xmlns="http://www.w3.org/2000/svg">
<path d="M10.167 18.5C14.8614 18.5 18.667 14.6944 18.667 10C18.667 5.30558 14.8614 1.5 10.167 1.5C5.47257 1.5 1.66699 5.30558 1.66699 10C1.66699 14.6944 5.47257 18.5 10.167 18.5Z" fill="#D9D9D9"/>
<path d="M13.4219 12.0441C13.7474 12.3696 13.7474 12.8964 13.4219 13.2219C13.0965 13.5473 12.5696 13.5473 12.2442 13.2219L10.3331 11.3107L8.42194 13.2219C8.0965 13.5473 7.56964 13.5473 7.2442 13.2219C6.91877 12.8964 6.91877 12.3696 7.2442 12.0441L9.15534 10.133L7.2442 8.22186C6.91877 7.89642 6.91877 7.36956 7.2442 7.04413C7.56964 6.71869 8.0965 6.71869 8.42194 7.04413L10.3331 8.95526L12.2442 7.04413C12.5696 6.71869 13.0965 6.71869 13.4219 7.04413C13.7474 7.36956 13.7474 7.89642 13.4219 8.22186L11.5108 10.133L13.4219 12.0441Z" fill="white"/>
</svg>
