<svg width="20" height="20" viewBox="0 0 20 20" fill="none" xmlns="http://www.w3.org/2000/svg">
<path d="M9.99935 18.3337C14.6017 18.3337 18.3327 14.6027 18.3327 10.0003C18.3327 5.39795 14.6017 1.66699 9.99935 1.66699C5.39698 1.66699 1.66602 5.39795 1.66602 10.0003C1.66602 14.6027 5.39698 18.3337 9.99935 18.3337Z" fill="#D9D9D9"/>
<path d="M11.0078 10L11.0078 13.333C11.0078 13.8853 10.5601 14.333 10.0078 14.333C9.45553 14.333 9.00781 13.8853 9.00781 13.333L9.00781 10C9.00781 9.44772 9.45553 9 10.0078 9C10.5601 9 11.0078 9.44772 11.0078 10Z" fill="#262626"/>
<path d="M9.99902 8C9.44695 7.99975 8.99902 7.55213 8.99902 7C8.99902 6.44787 9.44695 6.00025 9.99902 6L10.0078 6C10.5601 6 11.0078 6.44772 11.0078 7C11.0078 7.55228 10.5601 8 10.0078 8L9.99902 8Z" fill="#262626"/>
</svg>
