<svg width="24" height="24" viewBox="0 0 24 24" fill="none" xmlns="http://www.w3.org/2000/svg">
<path d="M11.7382 2C13.5416 2.00004 15.2716 2.716 16.5468 3.99121C17.822 5.26645 18.538 6.99637 18.538 8.7998V12.6113L18.5595 12.6533L20.3808 16.2969C20.4494 16.4341 20.4824 16.587 20.4755 16.7402C20.4686 16.8935 20.4224 17.0424 20.3417 17.1729C20.2611 17.3034 20.1486 17.4116 20.0146 17.4863C19.8806 17.561 19.7295 17.5996 19.5761 17.5996H15.457L15.4189 17.75C15.2076 18.5652 14.7313 19.2873 14.0654 19.8027C13.3993 20.3182 12.5805 20.5976 11.7382 20.5977C10.8959 20.5977 10.0772 20.3182 9.41107 19.8027C8.74504 19.2873 8.26892 18.5652 8.05756 17.75L8.0185 17.5996H3.90033C3.74701 17.5996 3.5958 17.5609 3.46185 17.4863C3.32786 17.4116 3.21537 17.3033 3.13471 17.1729C3.05404 17.0423 3.00781 16.8935 3.00092 16.7402C2.99402 16.587 3.02604 16.4341 3.09467 16.2969L4.91693 12.6533L4.93842 12.6113V8.7998C4.93842 6.99633 5.65438 5.26646 6.92963 3.99121C8.20487 2.71601 9.93479 2 11.7382 2ZM9.6601 17.5996L9.83295 17.8994C10.026 18.2337 10.3033 18.512 10.6376 18.7051C10.9721 18.8982 11.3521 19 11.7382 19C12.1243 19 12.5035 18.8981 12.8378 18.7051C13.1723 18.512 13.4504 18.2338 13.6435 17.8994L13.8163 17.5996H9.6601ZM11.7382 3.59961C10.3591 3.59961 9.03665 4.14791 8.06146 5.12305C7.08628 6.09824 6.53803 7.42068 6.53803 8.7998V12.5635C6.53801 12.8426 6.47333 13.1184 6.34857 13.3682L5.17768 15.71L5.03314 16H18.4433L18.2988 15.71L17.1288 13.3682C17.0037 13.1184 16.9387 12.8428 16.9384 12.5635V8.7998C16.9384 7.42072 16.3901 6.09823 15.415 5.12305C14.4398 4.1479 13.1173 3.59965 11.7382 3.59961Z" fill="#3A3B3F"/>
</svg>
