<svg width="20" height="20" viewBox="0 0 20 20" fill="none" xmlns="http://www.w3.org/2000/svg">
<path d="M16.4219 7.36825C16.792 6.99824 16.9999 6.49636 17 5.97302C17.0001 5.44968 16.7922 4.94775 16.4222 4.57764C16.0522 4.20754 15.5503 3.99958 15.027 3.99951C14.5037 3.99945 14.0018 4.20728 13.6317 4.57729L4.28937 13.9218C4.12684 14.0839 4.00664 14.2834 3.93936 14.5028L3.01465 17.5493C2.99656 17.6098 2.9952 17.6741 3.0107 17.7354C3.0262 17.7966 3.058 17.8526 3.10271 17.8972C3.14743 17.9418 3.20339 17.9735 3.26467 17.9889C3.32594 18.0044 3.39025 18.0029 3.45076 17.9847L6.49789 17.0607C6.71711 16.994 6.91661 16.8745 7.07889 16.7128L16.4219 7.36825Z" stroke="#262626" stroke-width="2" stroke-linecap="round" stroke-linejoin="round"/>
<path d="M12.5 6.49951L14.5 8.49951" stroke="#262626" stroke-width="2" stroke-linecap="round" stroke-linejoin="round"/>
</svg>
