<svg width="20" height="20" viewBox="0 0 20 20" fill="none" xmlns="http://www.w3.org/2000/svg">
<path d="M9 1.5C13.1421 1.5 16.5 4.85786 16.5 9C16.5 10.7105 15.9259 12.2861 14.9619 13.5479L18.207 16.793C18.5976 17.1835 18.5976 17.8165 18.207 18.207C17.8165 18.5976 17.1835 18.5976 16.793 18.207L13.5479 14.9619C12.2861 15.9259 10.7105 16.5 9 16.5C4.85786 16.5 1.5 13.1421 1.5 9C1.5 4.85786 4.85786 1.5 9 1.5ZM9 3.5C5.96243 3.5 3.5 5.96243 3.5 9C3.5 12.0376 5.96243 14.5 9 14.5C12.0376 14.5 14.5 12.0376 14.5 9C14.5 5.96243 12.0376 3.5 9 3.5Z" fill="#262626"/>
</svg>
