<svg width="40" height="40" viewBox="0 0 40 40" fill="none" xmlns="http://www.w3.org/2000/svg">
<path d="M23.2689 13.8868L18.3223 8.94011L18.8956 8.36678C20.9089 6.35344 24.3356 7.16677 25.2289 9.86011L27.5089 15.8601L23.2689 13.8868Z" fill="#FF8E00"/>
<path d="M33.6971 30.0454L26.9638 14.3254C26.6171 13.512 26.7371 13.392 26.1104 12.7654L25.4171 12.072C24.8704 11.5254 23.9771 11.5254 23.4304 12.072C22.8838 12.6187 21.9904 12.6187 21.4438 12.072L15.5371 6.15203C14.9904 5.60536 14.9904 4.71203 15.5371 4.16536C16.0838 3.6187 16.0838 2.72536 15.5371 2.1787L15.5104 2.15203C14.4171 1.0587 12.6304 1.0587 11.5371 2.15203L1.73711 11.9654C1.13711 12.5654 1.13711 13.5387 1.73711 14.1387L29.4971 37.1254C30.0971 37.7254 35.7238 38.272 36.3238 37.672L37.4171 36.9254C41.5371 33.2987 34.6971 32.3654 33.6971 30.0454Z" fill="#D9D9D9"/>
<path fill-rule="evenodd" clip-rule="evenodd" d="M23.5911 17.4687C23.3377 17.2154 23.1777 16.8687 23.1777 16.482C23.1777 15.7087 23.8044 15.082 24.5777 15.082H27.8311C28.6044 15.082 29.2311 15.7087 29.2311 16.482C29.2311 17.2554 28.6044 17.882 27.8311 17.882H24.5777C24.2044 17.882 23.8444 17.722 23.5911 17.4687ZM25.711 21.9221C25.4577 21.6687 25.2977 21.3221 25.2977 20.9354C25.2977 20.1621 25.9244 19.5354 26.6977 19.5354H29.951C30.7244 19.5354 31.351 20.1621 31.351 20.9354C31.351 21.7087 30.7244 22.3354 29.951 22.3354H26.6977C26.3244 22.3354 25.9644 22.1754 25.711 21.9221ZM27.0576 25.642C27.0576 26.0287 27.2176 26.3754 27.471 26.6287C27.7243 26.882 28.0709 27.0287 28.4576 27.042H31.711C32.4843 27.042 33.1109 26.4154 33.1109 25.642C33.1109 24.8687 32.4843 24.242 31.711 24.242H28.4576C27.6843 24.242 27.0576 24.8687 27.0576 25.642Z" fill="#8C8C8C"/>
<path d="M8.38979 5.29688L15.0698 12.1102C16.6431 13.7235 17.5231 15.8835 17.5231 18.1502L17.5098 22.0569L4.20312 9.43021L8.38979 5.29688Z" fill="#FF8E00"/>
<path d="M33.5354 38.4046C33.5354 38.4046 28.2021 37.8712 21.6287 33.4312C15.8554 29.5512 1.73539 14.1379 1.73539 14.1379C1.12206 13.5246 1.12206 12.5246 1.73539 11.9112L5.61539 8.03125C5.61539 8.03125 17.6821 19.4446 19.5621 25.2979C22.9487 35.9112 37.5887 36.8846 37.5887 36.8846L36.6554 37.8179C36.0421 38.4312 35.2021 38.6712 33.5354 38.4046Z" fill="#8C8C8C"/>
</svg>
